<svg width="149" height="211" viewBox="0 0 149 211" fill="none" xmlns="http://www.w3.org/2000/svg">
<path d="M121.093 210.969C118.434 210.969 115.957 209.969 113.51 207.927C109.318 204.428 106.784 199.907 105.984 194.491C105.955 194.293 105.946 194.095 105.946 193.898C105.936 193.533 105.946 193.2 105.946 192.877C105.955 192.564 105.975 192.085 105.917 191.95C105.917 191.95 105.888 191.919 105.801 191.866C105.329 191.554 104.924 191.2 104.577 190.887C104.038 190.408 103.691 190.106 103.286 190.002C99.6244 189.013 97.0227 186.877 95.7508 183.815L95.4039 182.992C93.9392 179.514 92.2915 175.587 92.9949 171.046C92.8214 169.817 93.2262 168.817 93.5056 168.119C93.5634 167.973 93.6309 167.817 93.679 167.671C93.785 167.327 93.891 166.911 93.997 166.494C94.2861 165.369 94.6041 164.109 95.2593 162.911L95.2979 162.786C95.664 161.692 96.1844 160.724 96.8396 159.901C97.042 159.338 97.0323 158.63 97.0131 157.766C97.0034 157.182 96.9938 156.526 97.0516 155.849L96.9938 149.673C96.8589 148.892 96.83 148.131 96.8204 147.413C94.1127 148.725 91.1255 149.621 87.7433 150.152C85.9414 150.433 84.0913 150.568 82.0966 150.568C80.5067 150.568 78.8686 150.485 77.0859 150.308C74.2337 150.027 71.5838 149.391 68.9821 148.36C67.4403 147.746 65.4746 146.913 63.5859 145.715C62.8729 147.84 61.9575 149.839 61.0806 151.787C60.7048 152.62 60.329 153.443 59.9628 154.287C57.7755 159.38 54.5281 165.848 48.8718 170.723C45.7016 173.452 42.1363 175.181 37.9639 176.014C36.7305 176.264 35.4779 176.378 34.2348 176.378C32.5293 176.378 30.8237 176.16 29.0314 175.701C24.965 174.67 21.0047 172.493 16.9094 169.077C11.176 164.275 6.34837 158.234 2.5518 151.131C0.017542 146.371 -0.637703 140.871 0.624607 134.778C1.63638 129.883 4.47899 125.623 8.85371 122.477C12.7659 119.655 17.0154 118.051 21.0239 116.738C22.6524 116.207 24.2809 115.916 25.8515 115.634C27.2295 115.384 28.5303 115.155 29.8023 114.77C30.0528 114.697 30.3034 114.655 30.5732 114.655C30.7852 114.655 30.9875 114.676 31.1995 114.728C31.4018 114.77 31.5753 114.801 31.7198 114.801C32.0282 114.801 32.3751 114.801 33.0496 113.208C37.8194 101.834 41.8087 92.5846 45.5956 84.0959C49.6331 75.0655 53.6416 65.8372 57.5153 56.911C60.0399 51.0887 62.5742 45.2664 65.1277 39.4544C65.3301 38.9857 65.4071 38.5274 65.3686 38.0067C65.1181 34.7882 66.1395 31.8302 68.3847 29.195C68.4232 29.143 68.4714 29.0909 68.5196 29.0388C68.5196 28.8305 68.5581 28.6326 68.6159 28.4347V28.0077C68.6159 27.3827 68.6352 26.7682 68.6159 26.1432C68.4328 20.2376 72.9328 15.4881 77.2594 14.0299C79.0709 13.4153 80.8825 13.1029 82.6362 13.1029C85.3343 13.1029 87.9842 13.832 90.5184 15.2589C91.1641 15.6235 91.8289 15.9672 92.5035 16.3109C92.4649 15.9047 92.4553 15.4985 92.4649 15.061C92.5805 11.7072 93.5923 8.87412 95.4713 6.62435C98.6801 2.78098 102.448 0.81242 106.977 0.604107C108.384 0.541613 109.79 0.447872 111.197 0.364547C114.127 0.187481 117.143 0 120.149 0C120.525 0 120.891 0 121.267 0C126.567 0.0833251 130.97 2.87472 133.668 7.87422C135.856 11.9363 135.962 16.4046 133.986 20.8104C135.287 24.0705 135.403 27.3931 134.352 30.7365C134.034 31.7677 134.092 33.1009 134.169 34.2779C134.439 38.1629 134.67 41.7459 134.873 45.2143C135.037 47.964 135.239 50.8908 135.711 53.7134C135.885 54.755 135.913 55.7549 135.952 56.734C135.971 57.2027 135.981 57.6818 136.019 58.1505C136.097 59.1504 136.183 60.1607 136.27 61.1606C136.463 63.3375 136.665 65.5873 136.694 67.8475C136.713 69.1911 136.848 70.5347 136.993 71.9616C137.118 73.149 137.243 74.3781 137.291 75.6279C137.32 76.2945 137.34 76.9612 137.359 77.6278C137.436 79.9921 137.503 82.221 137.879 84.4292C138.139 86.0019 138.168 87.5643 138.168 89.0329C138.168 91.491 138.38 93.9074 138.611 96.4696C138.708 97.5529 138.804 98.6465 138.881 99.7297C138.949 100.636 138.997 101.542 139.045 102.448C139.132 104.083 139.209 105.625 139.392 107.156C139.575 108.677 139.662 110.197 139.749 111.666C139.855 113.551 139.961 115.343 140.25 117.103C140.529 118.78 140.558 120.499 140.558 121.967C140.558 123.977 140.78 125.977 141.02 128.081C141.098 128.769 141.175 129.456 141.242 130.143C141.281 130.539 141.29 130.893 141.281 131.247C141.165 133.862 141.406 136.455 141.656 139.195C141.859 141.403 142.071 143.684 142.09 145.996C142.09 147.777 142.273 149.548 142.456 151.433C142.649 153.37 142.842 155.37 142.851 157.401C142.851 157.641 142.909 157.839 143.015 158.047C144.046 159.87 145.058 161.692 146.07 163.526L146.301 163.942C147.515 166.14 147.843 168.483 148.064 170.494C148.517 174.712 147.351 178.337 146.012 181.982C144.788 185.305 142.543 187.554 139.508 188.492C139.007 188.648 138.525 189.065 137.966 189.554C137.658 189.825 137.34 190.096 137.012 190.346C136.145 191.002 136.01 191.606 135.942 193.533C135.721 200.272 131.086 208.709 123.994 210.604C123.021 210.865 122.047 211 121.103 211L121.093 210.969ZM80.3525 110.76C81.3257 110.76 82.2893 110.812 83.2144 110.854C85.6041 111.01 88.0516 111.374 90.7208 111.979C92.6095 112.406 94.5077 113.062 96.4831 113.958C96.4446 113.093 96.4157 112.228 96.3867 111.385L96.3193 109.479C96.088 103.386 96.0591 97.2092 96.0302 91.2306C96.0013 84.5542 95.9628 77.6486 95.6448 70.8888C95.5966 69.8056 95.5581 68.7328 95.5388 67.6704C92.5227 75.1384 89.4585 82.6168 86.7893 89.1162C85.2765 92.8138 83.7444 96.5113 82.2219 100.209C80.7476 103.771 79.2829 107.344 77.8183 110.906C78.5988 110.812 79.4275 110.77 80.3332 110.77L80.3525 110.76Z" fill="white"/>
<path d="M98.8728 150.433C98.5934 148.975 98.7379 147.506 98.7186 146.048C98.709 145.444 98.7283 144.954 97.9574 145.423C94.6715 147.392 91.0966 148.496 87.4253 149.058C84.0431 149.579 80.6319 149.537 77.2112 149.204C74.5806 148.944 72.0656 148.35 69.5891 147.371C67.6041 146.59 65.6769 145.715 63.8943 144.486C62.7669 143.715 62.4104 143.757 62.0153 145.069C61.0324 148.319 59.4907 151.298 58.1705 154.381C55.6074 160.338 52.4757 165.879 47.6192 170.067C44.6417 172.629 41.3365 174.181 37.5689 174.931C34.7648 175.483 32.086 175.316 29.4168 174.639C25.177 173.556 21.4672 171.264 18.0368 168.39C12.3323 163.609 7.76485 157.776 4.17064 151.048C1.68456 146.381 1.41476 141.226 2.45544 136.184C3.41903 131.529 6.14601 127.852 9.87512 125.154C13.4597 122.571 17.4394 121.009 21.5346 119.676C24.4061 118.738 27.3933 118.582 30.2648 117.718C30.4093 117.676 30.5924 117.676 30.7466 117.718C32.8954 118.207 33.8879 117.072 34.7455 115.009C38.8312 105.271 42.9746 95.5635 47.2723 85.9394C53.8922 71.1076 60.2712 56.1611 66.8044 41.2876C67.1609 40.4752 67.2958 39.6419 67.2283 38.7774C67.0067 35.934 67.9992 33.5904 69.7433 31.5594C70.0709 31.174 70.3986 30.799 70.4467 30.2366C70.5816 30.1324 70.6009 30.0075 70.4853 29.8721C70.4853 28.9242 70.5142 27.966 70.4853 27.0182C70.3311 21.7583 74.5998 18.0295 77.7797 16.9567C81.8461 15.5818 85.7679 15.9047 89.5741 18.0503C91.193 18.9669 92.8792 19.748 94.5366 20.6125C95.057 20.8834 94.9895 20.7375 94.9124 20.2272C94.6908 18.8523 94.2957 17.5295 94.3439 16.0922C94.4403 13.3945 95.1822 10.9677 96.8493 8.97828C99.5473 5.74943 102.804 3.83295 107.006 3.63506C111.727 3.41633 116.458 2.96846 121.18 3.04137C125.863 3.11428 129.592 5.5307 131.943 9.88444C133.822 13.3737 133.851 17.1858 132.184 20.8834C131.924 21.4666 131.886 21.9249 132.136 22.5394C133.264 25.31 133.379 28.1014 132.464 31.0282C132.03 32.3926 132.088 33.9237 132.184 35.4027C132.435 39.0378 132.676 42.6729 132.888 46.3183C133.052 49.2347 133.273 52.1615 133.755 55.0571C133.986 56.4423 133.938 57.8797 134.034 59.2858C134.266 62.473 134.661 65.6602 134.699 68.8578C134.738 71.4929 135.191 74.076 135.306 76.7008C135.432 79.7213 135.422 82.7731 135.923 85.7832C136.154 87.1685 136.183 88.5954 136.183 90.0119C136.183 93.6574 136.646 97.2508 136.906 100.875C137.089 103.386 137.128 105.917 137.426 108.416C137.831 111.749 137.754 115.134 138.303 118.457C138.544 119.926 138.583 121.446 138.583 122.946C138.583 125.779 138.997 128.56 139.286 131.352C139.315 131.612 139.325 131.872 139.315 132.133C139.093 137.111 140.095 142.017 140.124 146.996C140.144 150.787 140.876 154.568 140.886 158.391C140.886 158.995 141.03 159.578 141.338 160.12C142.447 162.067 143.526 164.036 144.605 165.994C145.578 167.754 145.887 169.681 146.108 171.723C146.513 175.493 145.414 178.847 144.171 182.201C143.198 184.836 141.502 186.679 138.929 187.481C137.696 187.867 136.867 188.867 135.865 189.627C134.189 190.887 134.044 192.45 133.977 194.439C133.794 200.105 129.775 207.886 123.493 209.552C120.11 210.448 117.258 209.458 114.657 207.282C110.966 204.199 108.595 200.199 107.854 195.168C107.834 195.043 107.854 194.908 107.844 194.783C107.786 193.46 108.21 192.033 106.794 191.096C105.772 190.419 105.049 189.335 103.739 188.981C101.051 188.263 98.6512 186.732 97.4949 183.961C95.9338 180.201 94.1319 176.41 94.951 172.014C95.4617 171.952 95.6544 172.316 95.7893 172.743C95.982 173.347 96.0784 174.014 96.3675 174.556C96.618 175.035 96.6951 176.16 97.6876 174.972C98.4199 174.097 99.6726 173.66 100.858 173.889C101.841 174.087 102.814 174.712 103.421 173.254C103.479 173.118 103.778 173.108 103.961 173.035C103.97 173.368 104.028 173.712 103.99 174.035C103.864 175.056 104.221 175.535 105.194 175.41C105.098 175.962 105.502 176.295 105.705 176.712C105.425 177.014 105.435 177.389 105.445 177.785C105.483 179.545 105.801 179.816 107.343 179.524C107.805 179.441 108.229 179.253 108.721 179.243C111.062 179.18 113.404 179.232 115.755 179.107C120.168 178.868 124.591 179.045 129.004 178.784C131.028 178.659 133.042 178.597 135.065 178.482C135.933 178.43 136.559 178.17 136.472 176.962C136.395 175.858 135.904 175.587 134.998 175.628C134.198 175.67 133.408 175.608 132.608 175.587C132.608 175.274 132.608 174.951 132.608 174.639C133.62 174.358 134.651 174.493 135.682 174.493C135.798 174.66 135.913 174.649 136.019 174.483C137.927 174.504 137.87 174.504 137.918 172.577C137.937 171.629 137.6 171.379 136.81 171.4C135.653 171.431 134.507 171.4 133.35 171.4C133.244 171.212 133.148 171.233 133.061 171.41C132.917 171.41 132.772 171.41 132.628 171.41C132.454 171.202 132.281 171.202 132.107 171.41C131.963 171.41 131.818 171.41 131.674 171.4C131.327 171.129 130.999 171.233 130.681 171.452C129.968 171.473 129.265 171.493 128.552 171.504C128.176 171.275 128.349 170.879 128.301 170.546C130.064 170.525 131.818 170.494 133.582 170.473C135.489 170.452 135.403 170.441 135.528 168.442C135.605 167.213 135.2 167.046 134.208 167.046C131.51 167.046 128.85 167.546 126.162 167.598C124.302 167.629 122.442 167.64 120.583 167.785C116.921 168.067 113.23 167.994 109.559 168.067C109.415 167.504 109.251 166.942 109.318 166.348C110.349 166.213 111.371 166.015 112.402 165.952C118.877 165.536 125.362 165.494 131.837 165.494C133.138 165.494 133.447 165.161 133.08 163.807C132.464 161.557 132.502 159.234 132.454 156.964C132.406 154.193 132.069 151.475 131.857 148.735C131.539 144.652 131.317 140.559 131.018 136.487C130.739 132.737 130.479 128.987 130.247 125.227C130.007 121.269 129.428 117.322 129.313 113.374C129.197 109.437 128.706 105.542 128.552 101.605C128.407 97.8862 127.887 94.2094 127.752 90.4806C127.713 89.3349 127.733 88.1684 127.559 87.0227C127.116 84.1063 126.856 81.1899 126.856 78.2319C126.856 77.6277 126.933 77.0028 126.836 76.4195C126.143 72.1491 126.345 67.8162 125.94 63.525C125.699 60.9731 125.613 58.3901 125.401 55.8382C125.112 52.4011 124.61 48.9743 124.504 45.5268C124.418 42.6937 124.052 39.8919 123.907 37.0693C123.84 35.7152 123.965 34.3091 123.666 32.9863C123.358 31.6635 123.628 30.3303 123.464 29.0076C123.416 28.6013 123.695 28.4034 123.955 28.1951C125.034 27.3202 125.025 27.0286 123.82 26.2057C123.319 25.862 123.011 25.4871 122.992 24.7788C122.943 22.0291 122.635 19.2377 124.62 16.9879C124.726 16.8629 124.784 16.6963 124.851 16.54C125.025 16.1234 124.996 15.6651 124.88 15.2693C124.659 14.4986 121.855 12.5404 121.074 12.5404C117.576 12.5404 114.088 13.0091 110.6 12.9779C107.873 12.9571 105.531 13.2904 103.797 15.8734C103.382 16.488 103.228 16.7588 103.672 17.3108C105.579 19.7168 106.755 22.3624 106.235 25.6641C106.129 26.3203 106.032 26.7474 105.483 27.1119C104.471 27.7889 104.452 28.1639 105.435 28.8721C106.052 29.32 106.456 29.7575 106.437 30.6011C106.389 32.6322 106.37 34.6632 106.341 36.6943C105.685 36.913 104.924 36.9339 104.741 37.9129C104.356 40.0169 103.219 39.944 102.082 38.9128C101.031 37.9546 100.771 37.5171 100.029 39.194C99.6051 40.1315 99.5377 40.5377 100.28 41.0064C100.935 41.4334 101.031 41.8709 100.655 42.6C100.222 43.4436 100.26 44.3914 100.781 45.1726C101.301 45.9538 101.417 46.86 101.503 47.7349C101.561 48.3077 101.581 49.1201 100.887 49.4118C99.3161 50.0992 98.2561 51.5678 96.8107 52.4427C96.4831 52.6406 96.2133 52.901 95.8375 52.6615C94.7583 51.9636 93.7561 52.7344 92.7154 52.8177C92.2722 52.8489 92.2047 53.1406 92.3878 53.5468C93.0045 54.9633 94.6426 55.8278 96.1458 55.4945C96.5602 55.4008 97.0131 55.2966 97.1865 55.7862C97.4563 56.5361 97.9574 57.2339 97.7261 58.1193C97.5238 58.5775 97.3021 59.0254 97.3021 59.5462C96.3193 61.6502 95.4135 63.7854 94.5366 65.9414C91.3953 73.7219 88.2251 81.492 85.0356 89.2516C81.7883 97.1779 78.512 105.083 75.2647 112.999C75.1202 113.353 74.6191 113.676 74.8986 114.093C75.2262 114.582 75.814 114.395 76.238 114.28C78.5217 113.687 80.8247 113.801 83.1276 113.916C83.1662 114.312 82.9735 114.53 82.6555 114.718C81.7883 115.249 80.9018 115.187 79.9767 114.968C79.4371 114.843 78.9553 114.676 78.4639 115.27C77.3364 116.624 76.5463 118.384 74.7926 119.03C74.4071 119.176 74.0409 119.759 73.6362 119.301C73.3183 118.926 73.5013 118.415 73.8 117.999C74.0313 117.676 74.0313 117.353 73.723 117.082C73.4435 116.843 73.1159 116.874 72.8075 116.957C72.4414 117.051 72.1812 117.457 72.345 117.728C73.1063 118.999 72.4992 119.978 71.8921 120.998C71.8343 121.103 71.921 121.311 71.9307 121.436C72.2294 121.53 72.3643 121.353 72.5185 121.217C72.8461 120.926 73.087 120.363 73.6073 120.634C74.1566 120.926 74.0699 121.561 73.935 122.019C73.723 122.78 73.9157 123.279 74.5998 123.342C75.3322 123.404 75.9296 123.061 75.92 122.071C75.92 121.717 75.7561 121.176 76.2765 121.123C76.8065 121.071 76.8257 121.592 76.8836 122.04C77.0185 123.175 78.0977 123.894 78.9553 123.227C80.2369 122.217 81.1812 123.009 81.875 123.832C82.6651 124.779 82.8771 124.842 83.2915 123.613C83.6769 122.467 84.1394 122.373 84.9489 123.175C85.3921 123.613 85.9028 123.811 86.375 123.613C87.9264 122.967 88.4756 123.946 88.8803 125.258C89.102 125.967 89.4874 126.529 90.239 126.477C91.1737 126.415 90.7401 125.571 90.8075 125.061C90.981 123.707 92.1084 123.165 93.255 123.707C93.891 123.998 94.5559 124.915 95.4039 124.102C97.8129 129.841 97.8803 135.497 94.9317 141.049C94.739 141.424 94.4884 141.767 94.2765 142.121C94.1608 142.319 94.1415 142.548 94.2765 142.725C94.4595 142.944 94.6523 142.757 94.7872 142.632C95.8664 141.705 97.148 141.215 98.4199 140.715C98.8054 140.569 99.0944 140.319 99.2775 139.882C100.154 137.768 100.79 135.58 100.935 133.247C101.754 133.341 102.727 133.497 102.737 134.549C102.746 135.841 103.411 136.434 104.298 136.893C106.196 137.861 106.427 139.601 106.167 141.549C106.09 142.101 106.052 143.08 105.098 142.226C104.799 141.965 104.577 142.205 104.442 142.507C104.279 142.892 104.018 143.08 103.643 143.215C101.879 143.84 101.359 145.559 100.945 147.204C100.598 148.579 100.376 149.891 98.9306 150.402L98.8728 150.433ZM90.0366 131.727C90.0366 131.362 90.1523 130.966 89.8054 130.695C89.8054 130.518 89.8054 130.352 89.8054 130.175C89.8536 130.07 89.9596 129.925 89.9306 129.873C89.8054 129.675 89.6705 129.758 89.5548 129.914C88.9381 129.643 88.1962 130.383 87.6469 129.633C87.5698 129.31 87.3964 128.987 87.4253 128.675C87.4831 128.029 87.3 127.435 86.7508 127.383C86.057 127.31 86.057 128.164 85.9992 128.612C85.9125 129.3 85.7486 129.883 85.0934 129.852C84.3803 129.821 84.5249 129.081 84.5056 128.55C84.496 128.008 84.4092 127.383 83.9274 127.248C83.542 127.144 83.3975 127.789 83.1662 128.123C83.1373 128.206 83.1084 128.289 83.0795 128.373C83.118 128.466 83.0987 128.539 83.0409 128.612C82.482 128.654 81.9135 128.123 81.3546 128.633C81.2968 128.581 81.2005 128.529 81.1908 128.477C81.133 127.946 81.2968 127.269 80.4681 127.3C79.6202 127.331 80.0923 128.06 79.9478 128.466C79.7358 129.06 79.7647 129.873 78.8011 129.643C77.8279 129.404 78.4542 128.591 78.3 128.06C78.194 127.706 78.3097 127.227 77.8568 127.123C77.4135 127.019 77.2594 127.446 77.0763 127.779C76.9028 128.123 76.8739 128.487 76.7968 128.862C76.7294 129.206 76.6234 129.602 76.0838 129.675C74.9178 129.831 75.1298 129.019 75.1587 128.321C75.178 127.852 75.3322 127.206 74.7444 127.175C74.1855 127.144 73.8771 127.664 73.935 128.331C73.9542 128.55 73.9253 128.769 73.935 128.977C74.012 129.758 73.5013 129.623 73.0677 129.633C72.6148 129.633 72.1523 129.716 72.2487 128.946C72.2872 128.654 72.2776 128.341 72.2583 128.039C72.2294 127.623 72.0463 127.165 71.6994 127.144C71.2369 127.112 71.1213 127.612 71.0538 128.06C70.9478 128.685 71.2369 129.362 70.8322 129.945C70.3986 129.935 69.9168 129.789 69.541 129.945C69.0688 130.143 68.2594 129.748 68.1534 130.706C68.2497 130.883 68.3268 131.195 68.4425 131.216C68.7026 131.268 68.6255 130.935 68.7026 130.768C68.9146 130.8 69.1266 130.841 69.329 130.872C69.618 131.05 70.1191 130.987 70.0613 131.591C69.6662 131.622 69.2712 131.654 68.8664 131.664C68.6063 131.674 68.2497 131.508 68.1919 131.945C68.1437 132.31 68.481 132.424 68.7123 132.57C69.3482 132.997 69.9553 132.466 70.572 132.497C70.9574 132.914 70.6684 133.528 70.8996 133.945C71.1213 134.362 71.1213 135.164 71.6801 135.07C72.1523 134.997 72.2583 134.31 72.2679 133.778C72.2679 133.737 72.2679 133.695 72.2679 133.653C72.1716 132.924 72.6245 132.799 73.1352 132.726C73.7711 132.643 73.9831 132.987 73.9639 133.633C73.9639 133.872 74.0602 134.133 74.1469 134.372C74.2626 134.685 74.3108 135.112 74.7155 135.091C75.1202 135.06 75.1395 134.664 75.178 134.31C75.2165 133.976 75.3514 133.653 75.3611 133.331C75.3803 132.914 75.4863 132.674 75.9103 132.706C76.3247 132.737 76.7294 132.768 76.8161 133.331C76.8354 133.497 76.7968 133.674 76.8257 133.841C76.9221 134.383 77.0763 135.08 77.6159 135.07C78.1266 135.07 78.2422 134.383 78.2615 133.841C78.2615 133.716 78.2711 133.581 78.2615 133.456C78.1555 132.726 78.5602 132.726 79.0516 132.747C79.6587 132.779 79.6394 133.174 79.7551 133.685C79.8611 134.133 79.784 134.966 80.4489 134.966C80.9981 134.966 81.0945 134.341 81.1523 133.789C81.2583 132.872 81.8268 132.612 82.617 132.768C83.3396 132.914 83.0506 133.664 83.3011 134.101C83.5035 134.435 83.4842 135.07 83.966 135.018C84.3225 134.976 84.3611 134.424 84.4671 134.06C84.5345 133.82 84.496 133.549 84.5249 133.289C84.5827 132.851 84.8814 132.747 85.2283 132.768C85.5174 132.789 85.8932 132.633 85.951 133.185C85.9799 133.476 86.163 133.747 86.1726 134.028C86.1919 134.476 86.3172 134.799 86.7508 134.83C87.2326 134.872 87.3193 134.435 87.3964 134.06C87.5024 133.56 87.5698 133.049 87.6566 132.539C88.4563 132.289 89.5067 132.883 90.027 131.706L90.0366 131.727ZM114.29 183.721C114.416 184.305 114.724 184.669 115.302 184.721C115.832 185.69 116.651 186.367 117.393 187.107C117.981 187.69 118.077 188.273 117.788 189.044C117.528 189.742 117.075 190.387 117.162 191.21C116.892 191.377 116.931 191.658 116.931 191.929C116.304 192.439 116.931 192.95 116.979 193.429C117.181 195.97 118.212 198.074 120.091 199.657C121.315 200.689 122.269 200.626 123.319 199.366C124.456 198.012 125.14 196.439 125.487 194.595C125.979 191.991 125.776 191.533 123.435 191.408C123.435 191.179 123.435 190.96 123.435 190.731C123.666 190.731 123.907 190.731 124.138 190.731C125.006 191.064 125.16 191.012 125.092 190.419C124.909 189.95 124.794 189.429 124.524 189.033C123.888 188.075 124.109 187.284 124.803 186.544C125.198 186.117 125.632 185.742 126.037 185.325C126.268 185.086 126.518 184.773 126.374 184.451C126.171 184.023 125.757 184.159 125.42 184.263C124.109 184.69 123.531 185.732 123.155 187.096C122.481 189.565 122.433 189.533 120.12 189.408C119.58 189.377 119.349 189.252 119.349 188.606C119.33 187.179 118.925 185.94 117.682 185.19C117.75 184.409 118.935 184.898 118.887 183.971C119.446 183.951 120.004 183.94 120.563 183.919C120.689 184.18 120.872 184.169 121.045 184.003C121.257 183.794 121.296 183.576 121.007 183.388C120.968 182.805 120.698 182.274 120.843 181.649C120.92 181.326 120.843 180.972 120.361 180.982C117.846 181.024 115.331 181.024 112.816 181.065C112.132 181.076 111.872 181.524 111.91 182.263C111.949 182.919 111.987 183.451 112.816 183.419C113.317 183.399 113.818 183.607 114.319 183.711L114.29 183.721ZM12.3034 149.183C13.0935 150.652 14.1053 151.933 15.0978 153.235C17.9404 156.953 21.101 160.286 24.8494 162.953C30.9971 167.338 38.3976 166.359 43.2059 160.609C45.48 157.891 47.359 154.912 48.7369 151.579C50.8954 146.34 53.0346 141.101 55.1738 135.851C55.5496 134.924 55.6941 133.883 56.4457 133.174C57.4382 133.143 58.4403 133.154 59.4328 133.049C60.3964 132.956 60.6759 133.549 60.7337 134.383C60.8397 136.028 61.3022 137.559 61.8226 139.09C61.9864 139.57 62.1695 140.08 62.6223 140.34C63.9232 141.09 65.2241 141.83 66.5345 142.548C66.6887 142.632 66.9585 142.642 67.0934 142.548C67.3151 142.392 67.2861 142.08 67.1705 141.84C66.9393 141.392 66.6502 140.976 66.4189 140.517C63.2198 134.195 63.9521 128.06 67.1898 122.05C67.3825 121.696 67.9221 121.363 67.633 120.967C67.3825 120.624 66.7851 120.738 66.3996 120.884C64.2412 121.675 62.1116 122.53 61.3889 125.269C61.2829 125.665 60.9553 125.946 60.9457 126.425C60.9457 126.748 59.3365 127.498 59.1727 127.279C58.7969 126.79 59.086 126.31 59.2787 125.842C59.5292 125.217 59.9436 124.665 60.0206 123.957C60.2712 123.425 60.5313 122.894 60.7722 122.353C64.6844 113.385 68.1148 104.177 71.9018 95.1469C75.9971 85.377 80.0538 75.5863 83.86 65.681C85.9703 60.192 88.4274 54.8696 90.663 49.4326C91.0966 48.3702 91.588 47.5786 92.6769 47.3391C93.6983 47.1203 93.5923 46.5891 92.9949 45.933C92.6962 45.5997 92.1951 45.2768 92.4649 44.7664C93.5634 42.6625 93.7561 39.8815 96.3193 38.8712C96.8974 38.642 97.36 38.0796 97.8996 37.7046C98.5645 37.2359 98.6512 36.4756 98.3717 35.8819C97.6009 34.205 96.8685 32.5384 95.0281 31.7052C91.4242 30.0804 87.8878 28.268 84.3707 26.4245C83.0506 25.737 81.8364 25.685 80.4874 26.2057C78.9456 26.7994 78.3193 27.7681 78.8397 29.4138C79.4853 31.4656 79.3311 33.33 78.2615 35.1319C77.9435 35.6736 77.5099 36.2048 77.375 36.7984C77.2015 37.6109 76.8932 37.8088 76.1416 37.7567C74.9949 37.6838 74.7444 38.1733 75.4478 39.2149C75.9874 40.0273 75.8911 40.6939 75.496 41.4751C74.86 42.7249 74.2529 43.9852 73.6844 45.2768C65.3975 64.2228 57.1299 83.1793 48.8526 102.136C45.3451 110.166 41.8472 118.186 38.3686 126.227C38.1181 126.8 37.8001 126.831 37.3376 126.821C36.1524 126.79 34.9575 126.685 33.8012 127.092C32.8472 127.092 31.8547 126.883 30.9393 127.092C28.0871 127.758 25.1481 127.977 22.3344 128.873C19.0871 129.904 15.9361 131.154 13.2863 133.518C10.8387 135.695 9.47041 138.424 9.77876 141.955C10.01 144.611 10.9062 146.996 12.2937 149.183H12.3034ZM125.208 180.659C124.167 180.659 123.444 180.638 122.731 180.659C122.317 180.67 121.883 180.795 121.989 181.399C122.115 182.097 121.864 183.232 122.635 183.346C124.871 183.68 127.135 183.253 129.371 183.065C130.334 182.982 129.804 181.972 129.91 181.367C130.045 180.607 129.486 180.795 129.149 180.815C127.723 180.909 126.306 180.409 125.208 180.649V180.659Z" fill="#060708"/>
<path d="M98.8728 150.433C100.318 149.933 100.54 148.61 100.887 147.235C101.301 145.59 101.821 143.882 103.585 143.246C103.951 143.111 104.221 142.923 104.385 142.538C104.51 142.236 104.741 141.986 105.04 142.257C105.994 143.111 106.032 142.132 106.109 141.58C106.379 139.632 106.148 137.903 104.24 136.924C103.354 136.476 102.698 135.882 102.679 134.58C102.669 133.528 101.696 133.372 100.877 133.279C100.954 133.101 101.022 132.935 101.099 132.758C101.349 132.737 101.542 132.633 101.706 132.414C102.515 131.341 103.325 130.435 104.866 130.893C105.772 131.164 106.851 131.112 106.871 129.518C106.871 128.966 107.295 128.862 107.738 128.873C107.815 130.893 107.921 132.914 107.969 134.935C108.008 136.789 107.902 138.663 108.008 140.507C108.114 142.309 107.873 144.08 107.979 145.892C108.2 149.725 108.027 153.579 108.008 157.422C106.745 157.901 107.237 159.13 107.401 159.838C108.046 162.567 107.025 162.671 105.011 162.63C104.404 162.619 104.067 162.359 103.816 161.797C103.469 161.026 103.064 160.286 102.66 159.547C102.496 159.234 102.409 158.703 101.947 158.838C101.513 158.974 101.561 159.391 101.687 159.807C101.841 160.286 101.503 160.536 101.185 160.703C100.81 160.901 100.482 160.651 100.231 160.38C99.8653 159.984 99.875 159.453 99.8846 158.922C99.8846 158.078 99.7304 157.318 98.9403 156.901C98.921 154.735 98.9017 152.568 98.8728 150.412V150.433Z" fill="#030405"/>
<path d="M98.9403 156.932C99.7304 157.349 99.8846 158.109 99.8846 158.953C99.8846 159.474 99.8653 160.005 100.231 160.411C100.482 160.682 100.81 160.932 101.185 160.734C101.503 160.567 101.841 160.328 101.687 159.838C101.561 159.432 101.513 159.005 101.947 158.87C102.409 158.724 102.496 159.255 102.66 159.578C103.055 160.317 103.46 161.057 103.816 161.828C104.076 162.39 104.404 162.651 105.011 162.661C107.025 162.703 108.046 162.598 107.401 159.87C107.237 159.161 106.745 157.932 108.008 157.453C108.287 158.089 108.306 158.766 108.297 159.453C108.287 161.359 108.316 163.255 108.258 165.161C108.239 165.973 108.461 166.39 109.241 166.338C109.174 166.942 109.337 167.494 109.482 168.056C108.441 168.056 107.401 168.067 106.36 168.077C106.37 167.577 106.293 167.15 105.724 167.077C105.483 167.046 105.233 167.077 105.098 167.306C104.828 167.765 105.117 168.077 105.416 168.358C105.31 169.254 104.895 170.139 105.358 171.035C104.934 171.046 104.491 170.431 104.086 171.014C103.729 171.525 104.298 171.827 104.394 172.243C104.413 172.327 104.423 172.41 104.433 172.493C104.259 172.67 104.086 172.847 103.912 173.025C103.729 173.097 103.431 173.108 103.373 173.243C102.756 174.701 101.793 174.066 100.81 173.879C99.6244 173.65 98.3814 174.087 97.6394 174.962C96.6469 176.139 96.5698 175.014 96.3193 174.545C96.0302 173.993 95.9339 173.337 95.7411 172.733C95.6062 172.306 95.4135 171.931 94.9028 172.004C94.6234 171.014 95.1533 170.223 95.4424 169.369C96.0784 169.483 96.7433 169.421 96.8396 168.619C97.0034 167.338 98.1694 166.077 96.9938 164.734L97.0613 164.473C98.4103 164.432 98.7572 164.025 98.5163 162.796C98.4681 162.546 98.4392 162.296 98.4103 162.046C99.2004 160.411 98.7379 158.641 98.9306 156.932H98.9403Z" fill="#050606"/>
<path d="M97.0034 164.723C98.1887 166.067 97.0227 167.327 96.8493 168.608C96.7433 169.41 96.088 169.462 95.452 169.358C95.9242 167.796 96.1555 166.14 97.0034 164.723Z" fill="#060708"/>
<path d="M98.4199 162.036C98.4585 162.286 98.4777 162.536 98.5259 162.786C98.7668 164.005 98.4103 164.411 97.0709 164.463C97.3696 163.557 97.8032 162.744 98.4199 162.046V162.036Z" fill="#060708"/>
<path d="M70.466 29.8825C70.5816 30.0179 70.5624 30.1429 70.4275 30.247C70.3311 30.1116 70.3504 29.997 70.466 29.8825Z" fill="#7E7F7D"/>
<path d="M109.26 166.338C108.48 166.39 108.258 165.973 108.278 165.161C108.326 163.255 108.297 161.359 108.316 159.453C108.316 158.766 108.306 158.089 108.027 157.453C108.037 153.61 108.21 149.746 107.998 145.923C107.892 144.111 108.133 142.33 108.027 140.538C107.921 138.684 108.027 136.82 107.988 134.966C107.94 132.945 107.834 130.925 107.757 128.904C107.748 127.435 107.738 125.956 107.728 124.488C107.854 123.019 107.593 121.561 107.613 120.103C107.719 112.447 107.227 104.813 107.198 97.1571C107.15 85.6582 107.073 74.1489 106.726 62.6501C106.562 57.3797 106.408 52.1094 106.389 46.8391C106.514 44.8497 106.437 42.8603 106.35 40.8605C106.331 39.4753 106.321 38.09 106.302 36.7047C106.331 34.6737 106.35 32.6426 106.398 30.6116C106.418 29.7679 106.013 29.3304 105.396 28.8826C104.413 28.1743 104.433 27.7993 105.445 27.1223C105.994 26.7578 106.09 26.3203 106.196 25.6745C106.716 22.3728 105.541 19.7272 103.633 17.3212C103.19 16.7692 103.344 16.4984 103.758 15.8838C105.502 13.3008 107.834 12.9675 110.561 12.9883C114.049 13.0195 117.538 12.5613 121.036 12.5508C121.816 12.5508 124.62 14.509 124.842 15.2797C124.957 15.6755 124.986 16.1338 124.813 16.5504C124.745 16.7067 124.688 16.8837 124.582 16.9983C122.597 19.2481 122.905 22.0395 122.953 24.7892C122.963 25.4975 123.281 25.8724 123.782 26.2162C124.977 27.039 124.996 27.3306 123.917 28.2055C123.657 28.4139 123.377 28.6118 123.425 29.018C123.589 30.3407 123.319 31.674 123.628 32.9967C123.936 34.3195 123.801 35.7256 123.868 37.0797C124.013 39.9023 124.379 42.7041 124.466 45.5372C124.572 48.9847 125.073 52.4115 125.362 55.8486C125.574 58.4109 125.661 60.9836 125.902 63.5354C126.306 67.8266 126.104 72.1595 126.798 76.4299C126.894 77.0132 126.817 77.6382 126.817 78.2423C126.817 81.1899 127.077 84.1167 127.521 87.0331C127.694 88.1684 127.665 89.3453 127.713 90.4911C127.858 94.2094 128.368 97.8966 128.513 101.615C128.667 105.542 129.159 109.437 129.274 113.385C129.39 117.343 129.968 121.28 130.209 125.238C130.44 128.987 130.7 132.747 130.98 136.497C131.279 140.58 131.5 144.673 131.818 148.746C132.03 151.485 132.367 154.204 132.416 156.974C132.454 159.234 132.425 161.567 133.042 163.817C133.408 165.182 133.1 165.504 131.799 165.504C125.314 165.504 118.829 165.546 112.363 165.963C111.332 166.025 110.311 166.223 109.28 166.359L109.26 166.338Z" fill="white"/>
<path d="M56.4457 133.174C55.6845 133.883 55.5496 134.935 55.1738 135.851C53.0346 141.101 50.8954 146.34 48.7369 151.579C47.359 154.922 45.48 157.901 43.2059 160.609C38.3976 166.348 30.9971 167.327 24.8494 162.953C21.101 160.286 17.9404 156.943 15.0978 153.235C14.1053 151.943 13.0935 150.652 12.3034 149.183C13.0068 148.694 12.9586 148.017 12.7852 147.246C12.4865 145.923 12.9394 145.225 14.1824 144.975C15.2327 144.767 15.888 144.236 16.0807 142.996C16.2927 141.611 16.4468 140.174 17.1888 138.945C18.0079 137.58 18.7498 137.434 19.9351 138.455C20.3687 138.83 20.7156 139.257 20.9179 139.882C21.3419 141.174 21.8237 142.444 22.585 143.58C23.5582 145.027 25.3505 145.111 26.6031 143.694C28.4436 144.027 29.7445 142.84 31.1128 141.84C31.6717 141.861 32.3365 142.007 31.8451 140.976C31.9029 140.465 32.4811 140.351 32.5678 139.892C32.8954 138.132 33.8301 136.653 34.4854 135.06C35.2081 133.299 35.2659 133.331 33.5699 133.247C33.5796 132.862 33.4639 132.372 33.8301 132.174C34.8612 131.591 35.0539 130.414 35.5839 129.477C35.9693 128.779 36.0849 128.321 35.0442 128.331C34.389 128.331 33.7723 128.039 33.8205 127.102C34.9768 126.696 36.1716 126.8 37.3569 126.831C37.8194 126.842 38.147 126.8 38.3879 126.238C41.8665 118.197 45.374 110.177 48.8718 102.146C57.1491 83.1897 65.4168 64.2437 73.7037 45.2872C74.2626 43.9957 74.8793 42.7354 75.5153 41.4855C75.9103 40.6939 76.0067 40.0377 75.4671 39.2253C74.7637 38.1733 75.0142 37.6838 76.1609 37.7671C76.9028 37.8192 77.2112 37.6213 77.3943 36.8089C77.5195 36.2152 77.9532 35.684 78.2808 35.1424C79.3504 33.3405 79.5045 31.4761 78.8589 29.4242C78.3386 27.7785 78.9649 26.8099 80.5067 26.2162C81.8461 25.7058 83.0698 25.7475 84.39 26.4349C87.9071 28.2785 91.4435 30.0908 95.0473 31.7156C96.8878 32.5489 97.6105 34.2154 98.391 35.8923C98.6705 36.4964 98.5837 37.2463 97.9189 37.715C97.3792 38.09 96.9167 38.6524 96.3386 38.8816C93.7754 39.8919 93.573 42.6833 92.4842 44.7768C92.224 45.2872 92.7154 45.6205 93.0141 45.9434C93.6019 46.5996 93.7176 47.1308 92.6962 47.3495C91.6073 47.5891 91.1255 48.3806 90.6823 49.443C88.4467 54.8696 85.9895 60.2024 83.8793 65.6914C80.0731 75.5967 76.0067 85.3874 71.921 95.1572C68.1341 104.188 64.7037 113.395 60.7915 122.363C60.5603 122.905 60.2904 123.425 60.0399 123.967C59.5388 124.102 59.0378 124.217 58.556 124.384C58.026 124.561 57.6984 125.029 57.9104 125.561C58.1705 126.248 58.0742 126.821 58.0453 127.529C57.9778 128.883 57.496 129.862 56.8311 130.82C56.3012 131.591 56.1181 132.31 56.4842 133.185L56.4457 133.174Z" fill="#FEFEFE"/>
<path d="M106.283 36.6839C106.302 38.0692 106.312 39.4544 106.331 40.8397C105.965 40.8605 105.724 41.0793 105.628 41.4334C105.339 42.5583 104.722 43.1728 103.604 43.2145C103.113 43.2353 102.958 43.6728 103.045 44.1519C103.142 44.6518 103.276 45.1414 103.421 45.6309C103.999 47.6411 104.51 47.8599 106.138 46.8495C106.206 46.8079 106.293 46.8183 106.37 46.8079C106.389 52.0782 106.543 57.3589 106.707 62.6188C107.054 74.1177 107.131 85.627 107.179 97.1258C107.208 104.781 107.699 112.416 107.593 120.071C107.574 121.519 107.834 122.988 107.709 124.456C107.054 124.394 106.996 125.008 106.755 125.425C106.61 125.665 106.533 126.029 106.167 125.946C105.869 125.873 105.917 125.561 105.869 125.321C105.734 124.613 105.666 123.894 105.608 123.165C105.522 121.957 105.107 121.03 103.787 120.686C102.39 120.332 101.06 121.082 99.6726 120.738C99.2679 120.634 98.6512 121.155 99.0848 121.894C99.3257 122.311 99.4606 122.602 98.8246 122.613C98.179 121.832 97.1383 121.978 96.4156 121.384C96.9842 121.071 97.5334 120.769 98.2079 120.79C98.6416 120.811 98.7957 120.384 98.8439 119.999C98.8921 119.572 98.5741 119.519 98.2947 119.53C97.8418 119.53 97.5431 119.28 97.3118 118.915C97.148 118.655 96.9167 118.322 96.6662 118.624C96.0784 119.322 94.8932 119.644 95.2979 121.009C94.8643 121.363 94.0837 120.04 93.8525 121.353C93.9199 121.436 93.9778 121.519 94.0452 121.603C94.0837 121.686 94.1223 121.759 94.1608 121.842C93.496 122.759 93.9874 122.925 94.7583 122.905C94.9992 123.29 95.269 123.654 95.3268 124.144C94.4788 124.956 93.8043 124.04 93.178 123.748C92.0313 123.217 90.9135 123.748 90.7304 125.102C90.663 125.613 91.0966 126.446 90.1619 126.519C89.4103 126.571 89.0152 126.008 88.8033 125.3C88.3985 123.988 87.8493 123.009 86.2979 123.654C85.8257 123.852 85.315 123.654 84.8718 123.217C84.072 122.415 83.6095 122.509 83.2144 123.654C82.8 124.884 82.5784 124.821 81.7979 123.873C81.1041 123.05 80.1598 122.259 78.8782 123.269C78.0206 123.936 76.9414 123.227 76.8065 122.082C76.7487 121.634 76.7294 121.113 76.1994 121.165C75.6791 121.207 75.8429 121.759 75.8429 122.113C75.8525 123.102 75.2647 123.446 74.5228 123.384C73.8386 123.332 73.6459 122.821 73.8579 122.061C73.9831 121.603 74.0795 120.957 73.5303 120.676C73.0099 120.405 72.7594 120.967 72.4414 121.259C72.2872 121.394 72.1523 121.561 71.8536 121.478C71.844 121.353 71.7572 121.144 71.815 121.04C72.4317 120.019 73.0292 119.04 72.2679 117.77C72.1041 117.488 72.3643 117.093 72.7305 116.999C73.0388 116.916 73.3761 116.884 73.6459 117.124C73.9542 117.395 73.9542 117.718 73.723 118.04C73.4339 118.447 73.2412 118.967 73.5592 119.342C73.9542 119.801 74.33 119.217 74.7155 119.072C76.4692 118.415 77.2594 116.666 78.3868 115.312C78.8782 114.718 79.36 114.884 79.8996 115.009C80.815 115.218 81.7112 115.28 82.5784 114.759C82.8964 114.572 83.0891 114.353 83.0506 113.958C85.4788 114.114 87.8782 114.499 90.2486 115.041C92.7251 115.603 95.0955 116.551 97.3792 117.728C98.1405 118.124 98.5067 118.072 98.4392 116.988C98.3043 114.801 98.2561 112.614 98.1694 110.416C97.678 97.5529 98.1019 84.6687 97.4949 71.8054C97.3118 67.9308 97.3407 64.0249 97.6298 60.1399C97.8321 59.4837 97.6298 58.8171 97.649 58.1505C97.8803 57.2652 97.3792 56.5569 97.1094 55.8174C96.936 55.3175 96.4831 55.432 96.0688 55.5258C94.5655 55.8591 92.9274 54.9946 92.3107 53.578C92.1373 53.1718 92.1951 52.8802 92.6384 52.8489C93.679 52.7656 94.6812 51.9949 95.7604 52.6927C96.1362 52.9323 96.3964 52.6719 96.7336 52.474C98.179 51.5991 99.239 50.1305 100.81 49.443C101.494 49.141 101.484 48.3286 101.426 47.7661C101.34 46.8912 101.224 45.9955 100.704 45.2039C100.183 44.4227 100.145 43.4749 100.578 42.6312C100.954 41.9021 100.858 41.4647 100.203 41.0376C99.4606 40.5585 99.5377 40.1627 99.952 39.2253C100.694 37.5484 100.954 37.9858 102.005 38.9441C103.142 39.9752 104.279 40.0481 104.664 37.9442C104.847 36.9651 105.608 36.9443 106.264 36.7255L106.283 36.6839ZM101.619 41.1626C101.32 41.2459 101.32 41.5063 101.349 41.7667C101.378 42.0375 101.494 42.2979 101.773 42.2667C102.101 42.225 102.024 41.9021 102.024 41.6626C102.024 41.3917 101.956 41.1522 101.609 41.173L101.619 41.1626Z" fill="#030405"/>
<path d="M26.6031 143.694C25.3505 145.111 23.5582 145.027 22.585 143.58C21.8237 142.444 21.3419 141.174 20.9179 139.882C20.7156 139.267 20.3687 138.83 19.9351 138.455C18.7498 137.434 18.0079 137.58 17.1888 138.945C16.4468 140.174 16.2927 141.611 16.0807 142.996C15.888 144.236 15.2327 144.767 14.1824 144.975C12.9297 145.225 12.4768 145.933 12.7852 147.246C12.9586 148.017 13.0068 148.694 12.3034 149.183C10.9158 146.996 10.01 144.611 9.7884 141.955C9.48969 138.434 10.858 135.695 13.2959 133.518C15.9458 131.154 19.0967 129.904 22.3441 128.873C25.1578 127.977 28.0967 127.769 30.949 127.092C31.8644 126.883 32.8569 127.081 33.8108 127.092C33.7627 128.029 34.3794 128.331 35.0346 128.321C36.0753 128.31 35.9597 128.769 35.5742 129.466C35.0539 130.404 34.8612 131.591 33.8205 132.164C33.4639 132.362 33.5796 132.851 33.5603 133.237C32.2016 133.81 30.7466 133.924 29.3398 134.278C27.1042 134.841 25.0229 135.664 23.6064 137.778C23.2113 138.372 23.1535 138.903 23.404 139.663C24.0207 141.455 25.0325 142.798 26.5839 143.684L26.6031 143.694Z" fill="#FBFAFA"/>
<path d="M56.4457 133.174C56.0795 132.299 56.2626 131.581 56.7926 130.81C57.4575 129.852 57.9296 128.873 58.0067 127.519C58.0453 126.81 58.1416 126.238 57.8718 125.55C57.6695 125.008 57.9875 124.55 58.5174 124.373C59.0089 124.206 59.5099 124.092 60.0014 123.956C59.9243 124.665 59.5099 125.217 59.2594 125.842C59.0667 126.321 58.7776 126.79 59.1534 127.279C59.3172 127.498 60.9264 126.758 60.9264 126.425C60.9264 125.946 61.2637 125.665 61.3697 125.269C62.0827 122.53 64.2123 121.675 66.3804 120.884C66.7755 120.738 67.3632 120.623 67.6138 120.967C67.9029 121.363 67.3632 121.696 67.1705 122.05C63.9328 128.06 63.2005 134.195 66.3997 140.517C66.6309 140.965 66.92 141.382 67.1513 141.84C67.2669 142.069 67.2958 142.382 67.0742 142.548C66.9393 142.642 66.6695 142.632 66.5153 142.548C65.2048 141.83 63.9039 141.09 62.6031 140.34C62.1502 140.08 61.9671 139.57 61.8033 139.09C61.2926 137.57 60.8204 136.028 60.7144 134.383C60.6566 133.549 60.3868 132.945 59.4136 133.049C58.4211 133.154 57.4189 133.133 56.4264 133.174L56.4457 133.174Z" fill="#F8F7F6"/>
<path d="M103.932 173.025C104.105 172.848 104.279 172.67 104.452 172.493C105.888 172.4 107.333 172.295 108.769 172.202C114.117 172.452 119.465 171.921 124.813 171.91C125.998 171.91 127.318 172.066 128.503 171.483C129.216 171.462 129.92 171.441 130.633 171.431C130.97 171.525 131.298 171.504 131.625 171.379C131.77 171.379 131.915 171.379 132.059 171.389C132.232 171.389 132.406 171.389 132.579 171.389C132.724 171.389 132.868 171.389 133.013 171.389C133.109 171.389 133.206 171.389 133.302 171.379C134.458 171.379 135.605 171.4 136.761 171.379C137.542 171.358 137.889 171.608 137.87 172.556C137.831 174.483 137.879 174.483 135.971 174.462C135.856 174.462 135.75 174.462 135.634 174.472C134.613 174.472 133.582 174.337 132.56 174.618C132.406 174.608 132.242 174.587 132.088 174.577C123.579 174.472 115.08 175.035 106.572 175.17C106.1 175.17 105.628 175.326 105.155 175.41C104.182 175.535 103.826 175.045 103.951 174.035C103.989 173.712 103.932 173.368 103.922 173.035L103.932 173.025Z" fill="#FCFBFB"/>
<path d="M105.377 171.046C104.915 170.139 105.329 169.254 105.435 168.369C105.714 168.129 106.052 168.14 106.379 168.088C107.42 168.088 108.461 168.077 109.501 168.067C113.173 167.994 116.863 168.067 120.525 167.785C122.394 167.64 124.244 167.629 126.104 167.598C128.792 167.546 131.462 167.046 134.15 167.046C135.143 167.046 135.547 167.213 135.47 168.442C135.345 170.441 135.432 170.452 133.524 170.473C131.76 170.494 130.007 170.525 128.243 170.546C126.094 170.327 123.946 170.691 121.806 170.66C118.578 170.619 115.37 170.941 112.151 171.025C111.033 171.056 109.867 171.087 108.74 171.316C107.603 171.368 106.427 171.941 105.358 171.056L105.377 171.046Z" fill="#FCFCFB"/>
<path d="M132.57 175.566C133.37 175.587 134.169 175.639 134.959 175.608C135.865 175.566 136.366 175.837 136.434 176.941C136.511 178.149 135.894 178.42 135.027 178.462C133.003 178.576 130.989 178.649 128.966 178.764C124.553 179.024 120.13 178.857 115.716 179.086C113.365 179.211 111.024 179.159 108.682 179.222C108.191 179.232 107.767 179.409 107.304 179.503C105.753 179.795 105.445 179.524 105.406 177.764C105.406 177.378 105.387 176.993 105.666 176.691C106.003 176.41 106.389 176.399 106.794 176.389C109.819 176.316 112.835 176.441 115.871 176.191C119.243 175.92 122.645 175.941 126.037 175.837C126.229 175.868 126.422 175.899 126.557 175.701C128.561 175.649 130.556 175.597 132.56 175.545L132.57 175.566Z" fill="#FCFBFB"/>
<path d="M83.0313 128.623C83.0987 128.55 83.1084 128.477 83.0698 128.383C83.0987 128.3 83.1277 128.217 83.1566 128.133C83.3878 127.8 83.5227 127.154 83.9178 127.258C84.3996 127.394 84.4767 128.019 84.496 128.56C84.5056 129.091 84.3707 129.831 85.0838 129.862C85.739 129.893 85.9028 129.31 85.9895 128.623C86.0474 128.175 86.0473 127.321 86.7411 127.394C87.3 127.456 87.4831 128.039 87.4157 128.685C87.3867 128.998 87.5602 129.321 87.6373 129.643C87.5891 130.018 87.5506 130.383 87.8011 130.695C87.8204 131.039 87.8493 131.393 87.8685 131.737C87.6469 131.966 87.6084 132.258 87.6566 132.57C87.5698 133.081 87.5024 133.591 87.3964 134.091C87.3193 134.466 87.2326 134.903 86.7508 134.862C86.3172 134.83 86.1823 134.508 86.1726 134.06C86.163 133.778 85.9799 133.497 85.951 133.216C85.8932 132.654 85.5174 132.82 85.2283 132.799C84.8814 132.779 84.5827 132.883 84.5249 133.32C84.4863 133.57 84.5249 133.851 84.4671 134.091C84.3611 134.455 84.3225 135.007 83.966 135.049C83.4842 135.101 83.5035 134.476 83.3011 134.133C83.0506 133.706 83.3396 132.945 82.617 132.799C81.8364 132.643 81.2679 132.904 81.1523 133.82C81.0848 134.372 80.9885 134.987 80.4489 134.997C79.784 134.997 79.8514 134.164 79.7551 133.716C79.6394 133.206 79.6587 132.81 79.0516 132.779C78.5602 132.758 78.1555 132.758 78.2615 133.487C78.2808 133.612 78.2615 133.747 78.2615 133.872C78.2422 134.414 78.1266 135.091 77.6159 135.101C77.0763 135.101 76.9221 134.414 76.8257 133.872C76.7968 133.706 76.8354 133.528 76.8161 133.362C76.739 132.789 76.3247 132.758 75.9103 132.737C75.4863 132.706 75.3707 132.945 75.3611 133.362C75.3514 133.695 75.2165 134.018 75.178 134.341C75.1395 134.695 75.1202 135.091 74.7155 135.122C74.3108 135.143 74.2626 134.716 74.1469 134.403C74.0602 134.164 73.9542 133.914 73.9639 133.664C73.9831 133.018 73.7711 132.674 73.1352 132.758C72.6245 132.82 72.1716 132.956 72.2679 133.685C72.2679 133.726 72.2679 133.768 72.2679 133.81C72.2487 134.351 72.1523 135.028 71.6801 135.101C71.1116 135.195 71.1213 134.383 70.8996 133.976C70.6684 133.549 70.9574 132.945 70.572 132.529C70.5913 132.206 70.6106 131.872 70.6298 131.55C70.6587 131.3 70.6876 131.05 70.7262 130.789C70.7647 130.518 70.8033 130.248 70.8418 129.977C71.2465 129.393 70.9671 128.716 71.0634 128.092C71.1309 127.654 71.2465 127.144 71.7091 127.175C72.0656 127.196 72.2487 127.654 72.2679 128.071C72.2872 128.373 72.2968 128.675 72.2583 128.977C72.1523 129.748 72.6245 129.675 73.0774 129.664C73.511 129.664 74.012 129.789 73.9446 129.008C73.9253 128.789 73.9542 128.571 73.9446 128.362C73.8868 127.696 74.1855 127.175 74.754 127.206C75.3418 127.237 75.1876 127.873 75.1684 128.352C75.1395 129.05 74.9275 129.862 76.0934 129.706C76.6427 129.633 76.7487 129.237 76.8065 128.894C76.8739 128.519 76.9028 128.144 77.0859 127.81C77.2594 127.467 77.4232 127.05 77.8664 127.154C78.3193 127.258 78.2037 127.748 78.3097 128.092C78.4639 128.612 77.8375 129.435 78.8108 129.675C79.7743 129.914 79.7551 129.091 79.9574 128.498C80.102 128.092 79.6298 127.362 80.4778 127.331C81.3065 127.3 81.1523 127.977 81.2005 128.508C81.2005 128.571 81.3065 128.612 81.3643 128.664C81.3739 129.258 81.3643 129.956 82.1159 129.945C82.8289 129.945 83.0988 129.383 83.0506 128.644L83.0313 128.623ZM79.8225 131.07C79.784 130.81 79.6394 130.695 79.4082 130.716C79.042 130.758 78.83 130.987 78.8011 131.383C78.7915 131.602 78.9457 131.706 79.1095 131.674C79.4275 131.602 79.7262 131.466 79.8129 131.07H79.8225Z" fill="#F3F3F2"/>
<path d="M94.1801 121.842C94.1416 121.759 94.103 121.686 94.0645 121.603C94.0934 121.436 94.0067 121.373 93.8717 121.353C94.103 120.03 94.8835 121.353 95.3171 121.009C95.6159 121.384 96.0302 121.363 96.4349 121.394C97.1576 121.988 98.2079 121.842 98.8439 122.623C98.8728 123.321 99.4028 123.748 99.6822 124.311C100.983 126.977 101.128 129.862 101.108 132.779C101.031 132.956 100.964 133.122 100.887 133.299C100.733 135.632 100.106 137.82 99.2293 139.934C99.0463 140.372 98.7572 140.622 98.3717 140.767C97.0902 141.267 95.8182 141.746 94.739 142.684C94.5945 142.809 94.4017 142.996 94.2283 142.778C94.0837 142.611 94.1127 142.371 94.2283 142.173C94.4403 141.809 94.6812 141.465 94.8835 141.101C97.8321 135.539 97.7647 129.883 95.3557 124.154C95.3075 123.665 95.0281 123.3 94.7872 122.915C94.5848 122.561 94.3921 122.207 94.1897 121.853L94.1801 121.842Z" fill="#F8F7F6"/>
<path d="M123.444 191.419C125.786 191.544 125.988 192.002 125.497 194.606C125.15 196.439 124.466 198.012 123.329 199.376C122.279 200.626 121.325 200.688 120.101 199.668C118.212 198.085 117.191 195.991 116.988 193.439C116.95 192.95 116.314 192.45 116.94 191.939C119.137 192.137 121.286 191.606 123.454 191.429L123.444 191.419Z" fill="#F8F7F6"/>
<path d="M126.046 175.858C122.654 175.962 119.263 175.931 115.88 176.212C112.855 176.451 109.829 176.337 106.803 176.41C106.398 176.41 106.013 176.441 105.676 176.712C105.473 176.285 105.069 175.962 105.165 175.41C105.637 175.326 106.109 175.181 106.582 175.17C115.09 175.035 123.579 174.472 132.098 174.577C132.252 174.577 132.416 174.597 132.57 174.618C132.57 174.931 132.57 175.254 132.57 175.566C130.565 175.618 128.571 175.67 126.567 175.722C126.355 175.618 126.171 175.597 126.046 175.858Z" fill="#292828"/>
<path d="M124.148 190.742C123.917 190.742 123.676 190.742 123.444 190.742C121.334 190.596 119.243 190.887 117.162 191.221C117.075 190.398 117.528 189.752 117.788 189.054C118.077 188.283 117.981 187.7 117.393 187.117C116.642 186.377 115.822 185.7 115.302 184.732C116.131 184.669 116.95 184.659 117.673 185.2C118.916 185.95 119.32 187.2 119.34 188.617C119.34 189.263 119.571 189.388 120.11 189.419C122.423 189.533 122.471 189.575 123.146 187.107C123.522 185.742 124.1 184.7 125.41 184.273C125.747 184.169 126.171 184.023 126.364 184.461C126.509 184.784 126.258 185.096 126.027 185.336C125.622 185.752 125.189 186.127 124.794 186.554C124.1 187.294 123.878 188.086 124.514 189.044C124.784 189.45 124.9 189.96 125.083 190.429C124.765 190.533 124.447 190.637 124.129 190.742H124.148Z" fill="#F3F3F2"/>
<path d="M108.759 171.306C109.887 171.066 111.043 171.035 112.17 171.014C115.389 170.931 118.598 170.608 121.826 170.65C123.965 170.671 126.104 170.316 128.262 170.535C128.311 170.869 128.137 171.264 128.513 171.493C127.328 172.066 126.008 171.91 124.822 171.921C119.474 171.941 114.136 172.462 108.779 172.212C108.779 171.91 108.779 171.618 108.779 171.316L108.759 171.306Z" fill="#2D2B2A"/>
<path d="M120.544 183.93C119.985 183.951 119.426 183.961 118.867 183.982C117.345 183.815 115.832 183.492 114.29 183.732C113.789 183.628 113.288 183.43 112.787 183.44C111.958 183.471 111.91 182.94 111.881 182.284C111.843 181.555 112.103 181.097 112.787 181.086C115.302 181.045 117.817 181.034 120.332 181.003C120.824 181.003 120.891 181.347 120.814 181.67C120.669 182.284 120.949 182.826 120.978 183.409C120.746 183.503 120.621 183.69 120.544 183.93Z" fill="#FCFCFB"/>
<path d="M125.208 180.659C126.316 180.409 127.723 180.92 129.149 180.826C129.486 180.805 130.045 180.618 129.91 181.378C129.804 181.982 130.334 182.992 129.371 183.076C127.125 183.263 124.871 183.68 122.635 183.357C121.864 183.242 122.115 182.107 121.989 181.409C121.883 180.805 122.317 180.69 122.731 180.67C123.445 180.649 124.167 180.67 125.208 180.67L125.208 180.659Z" fill="#FBFAFA"/>
<path d="M117.162 191.21C119.243 190.877 121.325 190.596 123.444 190.731C123.444 190.96 123.444 191.179 123.444 191.408C121.276 191.585 119.128 192.116 116.931 191.919C116.931 191.648 116.892 191.367 117.162 191.2L117.162 191.21Z" fill="#343435"/>
<path d="M114.29 183.732C115.832 183.492 117.345 183.805 118.867 183.982C118.925 184.909 117.74 184.419 117.663 185.2C116.94 184.659 116.121 184.659 115.292 184.732C114.724 184.68 114.416 184.315 114.281 183.732L114.29 183.732Z" fill="#292828"/>
<path d="M70.6298 131.539C70.6106 131.862 70.5913 132.195 70.572 132.518C69.9457 132.487 69.3386 133.018 68.7123 132.591C68.481 132.435 68.1437 132.32 68.1919 131.966C68.2497 131.529 68.6063 131.695 68.8664 131.685C69.2615 131.664 69.6566 131.633 70.0517 131.612C70.2444 131.591 70.4275 131.57 70.6202 131.55L70.6298 131.539Z" fill="#989796"/>
<path d="M83.0313 128.623C83.0891 129.362 82.8097 129.925 82.0966 129.925C81.345 129.925 81.3546 129.237 81.345 128.644C81.9039 128.133 82.4724 128.664 83.0313 128.623Z" fill="#0C0C0D"/>
<path d="M70.8322 129.966C70.7936 130.237 70.7551 130.508 70.7166 130.779C70.2444 130.654 69.7819 130.789 69.329 130.883C69.117 130.852 68.905 130.81 68.7026 130.779C68.5196 130.758 68.3365 130.737 68.1534 130.716C68.269 129.748 69.0688 130.143 69.541 129.956C69.9168 129.8 70.3986 129.956 70.8322 129.956V129.966Z" fill="#B9B8B7"/>
<path d="M87.8107 130.695C87.5602 130.383 87.5987 130.018 87.6469 129.643C88.1962 130.393 88.9381 129.654 89.5548 129.925C89.6416 130.008 89.7283 130.091 89.8054 130.175C89.8054 130.352 89.8054 130.518 89.8054 130.695C89.709 130.737 89.603 130.779 89.5067 130.82C88.9381 130.779 88.3792 130.737 87.8107 130.695Z" fill="#B9B8B7"/>
<path d="M87.6662 132.57C87.6277 132.258 87.6662 131.966 87.8782 131.737C88.4371 131.82 88.9767 131.758 89.497 131.539C89.6801 131.602 89.8536 131.674 90.0366 131.737C89.5163 132.914 88.466 132.32 87.6662 132.57Z" fill="#B9B8B7"/>
<path d="M69.329 130.883C69.7915 130.789 70.2444 130.664 70.7166 130.779C70.6877 131.029 70.6587 131.279 70.6202 131.539C70.4275 131.56 70.2444 131.581 70.0517 131.602C70.1191 130.997 69.6181 131.07 69.3193 130.883H69.329Z" fill="#5E5E5E"/>
<path d="M97.649 60.1086C97.4371 59.9837 97.6105 59.5358 97.2443 59.5462C97.2443 59.0254 97.466 58.5775 97.6683 58.1193C97.6491 58.7859 97.8514 59.442 97.649 60.1086Z" fill="#7E7F7D"/>
<path d="M90.0366 131.737C89.8536 131.674 89.6801 131.602 89.497 131.539C89.497 131.3 89.497 131.06 89.497 130.82C89.5934 130.779 89.6898 130.737 89.7958 130.695C90.1426 130.966 90.027 131.362 90.027 131.727L90.0366 131.737Z" fill="#5E5E5E"/>
<path d="M120.544 183.93C120.621 183.69 120.756 183.503 120.978 183.409C121.267 183.586 121.228 183.815 121.016 184.023C120.843 184.19 120.66 184.19 120.534 183.94L120.544 183.93Z" fill="#292828"/>
<path d="M124.148 190.742C124.466 190.637 124.784 190.533 125.102 190.429C125.169 191.023 125.015 191.075 124.148 190.742Z" fill="#343435"/>
<path d="M68.1534 130.727C68.3365 130.747 68.5196 130.768 68.7026 130.789C68.6256 130.956 68.7026 131.289 68.4425 131.237C68.3268 131.216 68.2498 130.904 68.1534 130.727Z" fill="#5E5E5E"/>
<path d="M89.8054 130.175C89.7186 130.091 89.6319 130.008 89.5548 129.925C89.6705 129.768 89.8054 129.685 89.9307 129.883C89.9596 129.925 89.8536 130.081 89.8054 130.185L89.8054 130.175Z" fill="#5E5E5E"/>
<path d="M130.633 171.431C130.97 171.525 131.298 171.504 131.625 171.379C131.279 171.108 130.951 171.212 130.633 171.431Z" fill="#5E5E5E"/>
<path d="M132.579 171.4C132.406 171.4 132.232 171.4 132.059 171.4C132.232 171.191 132.406 171.202 132.579 171.4Z" fill="#5E5E5E"/>
<path d="M135.634 174.462C135.75 174.462 135.856 174.462 135.971 174.452C135.865 174.629 135.75 174.629 135.634 174.462Z" fill="#7E7F7D"/>
<path d="M133.302 171.379C133.206 171.379 133.109 171.379 133.013 171.389C133.1 171.202 133.196 171.191 133.302 171.379Z" fill="#5E5E5E"/>
<path d="M101.108 132.779C101.128 129.862 100.983 126.977 99.6822 124.311C99.4124 123.748 98.8825 123.321 98.8439 122.623C99.4799 122.623 99.345 122.311 99.1041 121.905C98.6801 121.155 99.2871 120.644 99.6919 120.748C101.079 121.103 102.409 120.342 103.806 120.696C105.127 121.03 105.541 121.957 105.628 123.175C105.676 123.904 105.753 124.623 105.888 125.331C105.936 125.581 105.888 125.883 106.186 125.956C106.553 126.04 106.63 125.685 106.774 125.436C107.015 125.019 107.073 124.404 107.728 124.467C107.738 125.935 107.748 127.414 107.757 128.883C107.324 128.873 106.9 128.977 106.89 129.529C106.88 131.133 105.791 131.185 104.886 130.904C103.344 130.435 102.534 131.352 101.725 132.424C101.561 132.643 101.369 132.758 101.118 132.768L101.108 132.779Z" fill="#060708"/>
<path d="M108.759 171.306C108.759 171.608 108.759 171.9 108.759 172.202C107.324 172.295 105.878 172.4 104.442 172.493C104.433 172.41 104.423 172.327 104.404 172.243C104.307 171.827 103.729 171.525 104.096 171.014C104.5 170.431 104.943 171.056 105.367 171.035C106.437 171.931 107.613 171.348 108.75 171.296L108.759 171.306Z" fill="#060708"/>
<path d="M106.37 168.077C106.042 168.129 105.705 168.119 105.425 168.358C105.127 168.067 104.837 167.765 105.107 167.306C105.242 167.077 105.493 167.046 105.734 167.077C106.292 167.15 106.379 167.588 106.37 168.077Z" fill="#060708"/>
<path d="M106.379 46.8183C106.302 46.8287 106.206 46.8183 106.148 46.86C104.52 47.8703 104.009 47.6515 103.431 45.6413C103.286 45.1518 103.151 44.6623 103.055 44.1623C102.968 43.6832 103.113 43.2353 103.614 43.2249C104.731 43.1832 105.358 42.5687 105.637 41.4438C105.724 41.0897 105.975 40.871 106.341 40.8501C106.427 42.8395 106.514 44.8289 106.379 46.8287V46.8183Z" fill="#060708"/>
<path d="M26.6031 143.694C25.0518 142.809 24.04 141.465 23.4233 139.674C23.1631 138.924 23.2209 138.382 23.6256 137.788C25.0421 135.664 27.1235 134.851 29.359 134.289C30.7659 133.935 32.2209 133.82 33.5796 133.247C35.2755 133.331 35.2273 133.299 34.495 135.06C33.8301 136.664 32.9051 138.132 32.5774 139.892C32.4907 140.34 31.9126 140.465 31.8547 140.976C31.6138 141.267 31.3633 141.549 31.1224 141.84C29.7541 142.84 28.4532 144.027 26.6128 143.694L26.6031 143.694Z" fill="#080909"/>
<path d="M31.1128 141.84C31.3537 141.549 31.6042 141.267 31.8451 140.976C32.3365 141.996 31.662 141.861 31.1128 141.84Z" fill="#FBFAFA"/>
<path d="M96.4349 121.394C96.0302 121.373 95.6159 121.394 95.3171 121.009C94.9124 119.644 96.0976 119.322 96.6854 118.624C96.936 118.322 97.1673 118.665 97.3311 118.915C97.5623 119.29 97.861 119.54 98.3139 119.53C98.603 119.53 98.921 119.572 98.8632 119.999C98.815 120.394 98.6608 120.811 98.2272 120.79C97.5527 120.769 96.9938 121.071 96.4349 121.384L96.4349 121.394Z" fill="#060708"/>
<path d="M101.619 41.1626C101.966 41.1418 102.033 41.3813 102.033 41.6521C102.033 41.8917 102.11 42.225 101.783 42.2562C101.503 42.2875 101.388 42.0271 101.359 41.7563C101.33 41.4959 101.33 41.2355 101.629 41.1522L101.619 41.1626Z" fill="#060708"/>
<path d="M94.1801 121.842C94.3825 122.196 94.5752 122.55 94.7775 122.905C94.0163 122.915 93.5152 122.759 94.1801 121.842Z" fill="#060708"/>
<path d="M93.8814 121.363C94.0163 121.384 94.103 121.446 94.0741 121.613C94.0067 121.53 93.9488 121.446 93.8814 121.363Z" fill="#060708"/>
<path d="M126.046 175.858C126.171 175.597 126.364 175.618 126.567 175.722C126.422 175.91 126.229 175.889 126.046 175.858Z" fill="#B9B8B7"/>
<path d="M89.5067 130.82C89.5067 131.06 89.5067 131.3 89.5067 131.539C88.9863 131.758 88.4371 131.82 87.8878 131.737C87.8685 131.393 87.8396 131.039 87.8204 130.695C88.3889 130.737 88.9478 130.779 89.5163 130.82L89.5067 130.82Z" fill="#292828"/>
<path d="M79.8225 131.07C79.7262 131.466 79.4371 131.602 79.1191 131.674C78.9553 131.706 78.7915 131.602 78.8107 131.383C78.83 130.987 79.0516 130.758 79.4178 130.716C79.6491 130.695 79.7936 130.81 79.8322 131.07H79.8225Z" fill="#656565"/>
</svg>
