<svg width="27" height="34" viewBox="0 0 27 34" fill="none" xmlns="http://www.w3.org/2000/svg">
<path d="M22.0669 33.995C21.5823 33.995 21.131 33.8338 20.685 33.5049C19.9211 32.941 19.4593 32.2126 19.3136 31.3398C19.3083 31.3079 19.3065 31.276 19.3065 31.2441C19.3048 31.1854 19.3065 31.1317 19.3065 31.0797C19.3083 31.0293 19.3118 30.9521 19.3013 30.9303C19.3013 30.9303 19.296 30.9253 19.2802 30.9169C19.1942 30.8665 19.1204 30.8095 19.0572 30.7591C18.9589 30.6819 18.8957 30.6332 18.8219 30.6164C18.1546 30.457 17.6805 30.1129 17.4487 29.6195L17.3855 29.4869C17.1186 28.9263 16.8183 28.2936 16.9465 27.5618C16.9149 27.3638 16.9887 27.2027 17.0396 27.0902C17.0501 27.0667 17.0624 27.0416 17.0712 27.0181C17.0905 26.9627 17.1098 26.8955 17.1292 26.8284C17.1818 26.6472 17.2398 26.4441 17.3592 26.2511L17.3662 26.2309C17.4329 26.0547 17.5278 25.8986 17.6472 25.766C17.684 25.6754 17.6823 25.5613 17.6788 25.422C17.677 25.328 17.6753 25.2222 17.6858 25.1131L17.6753 24.1179C17.6507 23.992 17.6454 23.8695 17.6436 23.7537C17.1502 23.9651 16.6059 24.1095 15.9895 24.1951C15.6612 24.2404 15.324 24.2622 14.9605 24.2622C14.6708 24.2622 14.3723 24.2488 14.0474 24.2203C13.5277 24.1749 13.0448 24.0726 12.5707 23.9064C12.2897 23.8074 11.9315 23.6731 11.5873 23.4801C11.4574 23.8225 11.2906 24.1447 11.1308 24.4586C11.0623 24.5928 10.9938 24.7254 10.9271 24.8614C10.5285 25.6821 9.93671 26.7244 8.90595 27.5098C8.32824 27.9495 7.67853 28.2282 6.9182 28.3624C6.69343 28.4027 6.46516 28.4212 6.23864 28.4212C5.92783 28.4212 5.61703 28.3859 5.29042 28.3121C4.5494 28.1459 3.82769 27.7951 3.08141 27.2446C2.03661 26.4709 1.15687 25.4975 0.465016 24.3528C0.0031967 23.5858 -0.116209 22.6997 0.113823 21.7178C0.298199 20.929 0.81621 20.2426 1.61342 19.7357C2.32634 19.2809 3.10072 19.0224 3.83121 18.8109C4.12796 18.7253 4.42472 18.6783 4.71095 18.633C4.96205 18.5928 5.19911 18.5558 5.43089 18.4937C5.47655 18.482 5.5222 18.4753 5.57137 18.4753C5.61 18.4753 5.64688 18.4786 5.68551 18.487C5.72238 18.4937 5.75399 18.4988 5.78033 18.4988C5.83652 18.4988 5.89974 18.4988 6.02265 18.242C6.89186 16.4092 7.61883 14.9188 8.30892 13.551C9.04467 12.0959 9.77516 10.6088 10.4811 9.1705C10.9411 8.2323 11.4029 7.29411 11.8683 6.35759C11.9051 6.28206 11.9192 6.20821 11.9122 6.1243C11.8665 5.60569 12.0526 5.12903 12.4618 4.70441C12.4688 4.69602 12.4776 4.68763 12.4864 4.67924C12.4864 4.64567 12.4934 4.61378 12.5039 4.58189V4.51308C12.5039 4.41238 12.5074 4.31336 12.5039 4.21266C12.4706 3.26103 13.2906 2.49571 14.079 2.26074C14.4092 2.16171 14.7393 2.11136 15.0589 2.11136C15.5505 2.11136 16.0334 2.22885 16.4952 2.45878C16.6129 2.51752 16.7341 2.57291 16.857 2.62829C16.85 2.56284 16.8482 2.49738 16.85 2.42689C16.871 1.88646 17.0554 1.42995 17.3978 1.06743C17.9826 0.448119 18.6691 0.130911 19.4944 0.0973443C19.7508 0.0872742 20.0072 0.072169 20.2636 0.0587422C20.7974 0.0302103 21.347 0 21.8948 0C21.9633 0 22.0301 0 22.0985 0C23.0643 0.0134268 23.8668 0.463224 24.3585 1.26883C24.7571 1.92339 24.7764 2.6434 24.4164 3.35334C24.6535 3.87866 24.6745 4.41406 24.4831 4.95281C24.4252 5.11897 24.4357 5.33379 24.4498 5.52345C24.4989 6.14947 24.5411 6.72682 24.578 7.28571C24.6078 7.7288 24.6447 8.20041 24.7307 8.65525C24.7623 8.82308 24.7676 8.9842 24.7746 9.14197C24.7781 9.21749 24.7799 9.2947 24.7869 9.37022C24.801 9.53134 24.8168 9.69415 24.8326 9.85527C24.8677 10.206 24.9046 10.5686 24.9098 10.9328C24.9134 11.1493 24.9379 11.3658 24.9643 11.5957C24.9871 11.787 25.0099 11.9851 25.0187 12.1865C25.024 12.2939 25.0275 12.4013 25.031 12.5087C25.0451 12.8897 25.0573 13.2489 25.1258 13.6047C25.1732 13.8581 25.1785 14.1099 25.1785 14.3465C25.1785 14.7426 25.2171 15.132 25.2593 15.5449C25.2768 15.7194 25.2944 15.8956 25.3084 16.0702C25.3207 16.2162 25.3295 16.3622 25.3383 16.5082C25.3541 16.7717 25.3682 17.0201 25.4015 17.2669C25.4349 17.5119 25.4507 17.7569 25.4665 17.9936C25.4858 18.2974 25.5051 18.586 25.5578 18.8697C25.6087 19.1399 25.614 19.4168 25.614 19.6535C25.614 19.9774 25.6544 20.2996 25.6983 20.6387C25.7123 20.7494 25.7264 20.8602 25.7387 20.971C25.7457 21.0348 25.7474 21.0918 25.7457 21.1489C25.7246 21.5701 25.7685 21.9881 25.8142 22.4295C25.851 22.7853 25.8897 23.1528 25.8932 23.5254C25.8932 23.8124 25.9265 24.0977 25.9599 24.4015C25.995 24.7137 26.0301 25.0359 26.0319 25.3632C26.0319 25.4018 26.0424 25.4337 26.0618 25.4673C26.2496 25.761 26.434 26.0547 26.6184 26.3501L26.6605 26.4172C26.8818 26.7713 26.9415 27.149 26.9819 27.4729C27.0644 28.1526 26.8519 28.7367 26.6079 29.3241C26.3849 29.8595 25.9757 30.222 25.4226 30.3731C25.3313 30.3983 25.2435 30.4654 25.1416 30.5443C25.0854 30.5879 25.0275 30.6316 24.9678 30.6718C24.8098 30.7776 24.7852 30.8749 24.7729 31.1854C24.7325 32.2713 23.8879 33.6308 22.5955 33.9362C22.4181 33.9782 22.2408 34 22.0687 34L22.0669 33.995ZM14.6427 17.8476C14.8201 17.8476 14.9957 17.856 15.1642 17.8627C15.5997 17.8878 16.0457 17.9466 16.5321 18.0439C16.8763 18.1127 17.2222 18.2185 17.5822 18.3628C17.5752 18.2235 17.5699 18.0842 17.5646 17.9483L17.5523 17.6411C17.5102 16.6593 17.5049 15.664 17.4997 14.7007C17.4944 13.6248 17.4874 12.5121 17.4294 11.4228C17.4206 11.2483 17.4136 11.0754 17.4101 10.9042C16.8605 12.1076 16.3021 13.3127 15.8157 14.36C15.54 14.9558 15.2608 15.5516 14.9834 16.1474C14.7147 16.7214 14.4478 17.2971 14.1809 17.8711C14.3231 17.856 14.4741 17.8492 14.6392 17.8492L14.6427 17.8476Z" fill="white"/>
<path d="M18.0177 24.2404C17.9667 24.0054 17.9931 23.7688 17.9896 23.5338C17.9878 23.4365 17.9913 23.3576 17.8509 23.4331C17.2521 23.7503 16.6006 23.9282 15.9316 24.0189C15.3152 24.1028 14.6936 24.0961 14.0703 24.0424C13.5909 24.0004 13.1326 23.9047 12.6813 23.747C12.3196 23.6211 11.9684 23.4801 11.6435 23.2821C11.4381 23.1579 11.3731 23.1646 11.3011 23.376C11.122 23.8997 10.841 24.3797 10.6005 24.8765C10.1334 25.8365 9.56268 26.7294 8.67768 27.4041C8.13508 27.817 7.53279 28.067 6.8462 28.1879C6.33522 28.2768 5.84706 28.25 5.36065 28.1409C4.58803 27.9663 3.91198 27.5971 3.28686 27.1339C2.24732 26.3635 1.41499 25.4236 0.760019 24.3394C0.306979 23.5875 0.257812 22.7567 0.447457 21.9444C0.623053 21.1942 1.11999 20.6017 1.79955 20.167C2.45277 19.7508 3.17799 19.4991 3.92427 19.2842C4.44755 19.1332 4.9919 19.108 5.51518 18.9687C5.54152 18.962 5.57488 18.962 5.60298 18.9687C5.99456 19.0476 6.17542 18.8646 6.3317 18.5323C7.07623 16.9631 7.8313 15.3989 8.61446 13.8481C9.82081 11.4581 10.9833 9.04966 12.1738 6.65298C12.2388 6.52207 12.2634 6.3878 12.2511 6.24849C12.2107 5.79031 12.3915 5.41268 12.7094 5.0854C12.7691 5.0233 12.8288 4.96288 12.8376 4.87225C12.8621 4.85546 12.8657 4.83532 12.8446 4.81351C12.8446 4.66078 12.8499 4.50637 12.8446 4.35364C12.8165 3.50607 13.5944 2.90522 14.1739 2.73235C14.9149 2.51081 15.6296 2.56284 16.3232 2.90858C16.6182 3.05627 16.9255 3.18215 17.2275 3.32145C17.3223 3.36509 17.31 3.34159 17.296 3.25935C17.2556 3.03781 17.1836 2.82466 17.1924 2.59305C17.2099 2.15836 17.3451 1.7673 17.6489 1.44674C18.1406 0.926449 18.7341 0.617633 19.4997 0.585744C20.3601 0.550499 21.2223 0.47833 22.0827 0.490078C22.9361 0.501826 23.6157 0.891203 24.0441 1.59275C24.3866 2.155 24.3918 2.76928 24.088 3.36509C24.0406 3.45908 24.0336 3.53293 24.0793 3.63195C24.2847 4.07839 24.3058 4.52819 24.139 4.9998C24.06 5.21967 24.0705 5.46638 24.088 5.70471C24.1337 6.29045 24.1776 6.8762 24.2162 7.46362C24.2461 7.93356 24.2865 8.40517 24.3743 8.87175C24.4164 9.09497 24.4076 9.32659 24.4252 9.55316C24.4673 10.0667 24.5393 10.5803 24.5464 11.0956C24.5534 11.5202 24.6359 11.9364 24.657 12.3594C24.6798 12.8461 24.6781 13.3378 24.7694 13.8229C24.8115 14.0461 24.8168 14.276 24.8168 14.5043C24.8168 15.0917 24.9011 15.6707 24.9485 16.2548C24.9818 16.6593 24.9889 17.0671 25.0433 17.4699C25.117 18.007 25.103 18.5525 25.2031 19.0879C25.247 19.3245 25.254 19.5696 25.254 19.8112C25.254 20.2677 25.3295 20.7159 25.3822 21.1657C25.3875 21.2076 25.3892 21.2496 25.3875 21.2915C25.3471 22.0938 25.5297 22.8843 25.535 23.6865C25.5385 24.2975 25.6719 24.9067 25.6737 25.5227C25.6737 25.62 25.7 25.714 25.7562 25.8013C25.9582 26.1151 26.1548 26.4323 26.3515 26.7479C26.5288 27.0315 26.585 27.342 26.6254 27.6709C26.6992 28.2785 26.499 28.8189 26.2725 29.3594C26.0951 29.784 25.7861 30.0811 25.3172 30.2103C25.0925 30.2724 24.9415 30.4335 24.7588 30.556C24.4533 30.7591 24.427 31.0109 24.4147 31.3314C24.3813 32.2444 23.6491 33.4982 22.5042 33.7667C21.8878 33.911 21.3681 33.7516 20.8939 33.4008C20.2214 32.904 19.7894 32.2595 19.6542 31.4489C19.6507 31.4288 19.6542 31.4069 19.6525 31.3868C19.6419 31.1737 19.7192 30.9437 19.4611 30.7927C19.2749 30.6836 19.1432 30.509 18.9044 30.452C18.4145 30.3362 17.9773 30.0894 17.7666 29.643C17.4821 29.0371 17.1537 28.4262 17.303 27.7179C17.3961 27.7079 17.4312 27.7666 17.4558 27.8354C17.4909 27.9328 17.5084 28.0402 17.5611 28.1275C17.6068 28.2047 17.6208 28.3859 17.8017 28.1946C17.9351 28.0536 18.1634 27.9831 18.3794 28.02C18.5585 28.0519 18.7359 28.1526 18.8465 27.9177C18.857 27.8958 18.9115 27.8942 18.9448 27.8824C18.9466 27.9361 18.9571 27.9915 18.9501 28.0435C18.9273 28.208 18.9922 28.2852 19.1696 28.2651C19.152 28.354 19.2258 28.4077 19.2626 28.4749C19.2117 28.5235 19.2135 28.584 19.2152 28.6477C19.2223 28.9314 19.2802 28.975 19.5612 28.928C19.6454 28.9146 19.7227 28.8844 19.8123 28.8827C20.239 28.8726 20.6657 28.881 21.0941 28.8609C21.8984 28.8223 22.7043 28.8508 23.5086 28.8089C23.8773 28.7887 24.2443 28.7787 24.6131 28.7602C24.7711 28.7518 24.8853 28.7098 24.8695 28.5152C24.8554 28.3372 24.7659 28.2936 24.6008 28.3003C24.455 28.307 24.3111 28.297 24.1653 28.2936C24.1653 28.2433 24.1653 28.1912 24.1653 28.1409C24.3497 28.0956 24.5376 28.1174 24.7255 28.1174C24.7465 28.1442 24.7676 28.1426 24.7869 28.1157C25.1346 28.1191 25.1241 28.1191 25.1328 27.8086C25.1364 27.6558 25.0749 27.6156 24.9309 27.6189C24.7202 27.6239 24.5112 27.6189 24.3005 27.6189C24.2812 27.5887 24.2636 27.5921 24.2478 27.6206C24.2215 27.6206 24.1952 27.6206 24.1688 27.6206C24.1372 27.587 24.1056 27.587 24.074 27.6206C24.0477 27.6206 24.0213 27.6206 23.995 27.6189C23.9318 27.5753 23.8721 27.5921 23.8141 27.6273C23.6842 27.6307 23.556 27.634 23.4261 27.6357C23.3576 27.5988 23.3892 27.535 23.3804 27.4813C23.7017 27.4779 24.0213 27.4729 24.3427 27.4695C24.6903 27.4662 24.6745 27.4645 24.6974 27.1423C24.7114 26.9442 24.6377 26.9174 24.4568 26.9174C23.9651 26.9174 23.4805 26.9979 22.9906 27.0063C22.6517 27.0114 22.3128 27.013 21.9739 27.0365C21.3066 27.0818 20.6341 27.0701 19.965 27.0818C19.9387 26.9912 19.9088 26.9006 19.9211 26.8049C20.109 26.7831 20.2952 26.7512 20.483 26.7411C21.6631 26.674 22.8448 26.6673 24.0248 26.6673C24.2619 26.6673 24.3181 26.6136 24.2514 26.3954C24.139 26.0329 24.146 25.6586 24.1372 25.2927C24.1284 24.8463 24.067 24.4082 24.0283 23.9668C23.9704 23.3089 23.93 22.6493 23.8756 21.9931C23.8247 21.3889 23.7772 20.7847 23.7351 20.1788C23.6912 19.541 23.5858 18.9049 23.5648 18.2688C23.5437 17.6344 23.4541 17.0067 23.4261 16.3723C23.3997 15.7731 23.3049 15.1807 23.2803 14.5798C23.2733 14.3952 23.2768 14.2072 23.2452 14.0226C23.1644 13.5527 23.117 13.0827 23.117 12.6061C23.117 12.5087 23.131 12.408 23.1135 12.314C22.9871 11.6259 23.0239 10.9277 22.9502 10.2363C22.9063 9.82506 22.8905 9.40883 22.8518 8.99763C22.7992 8.44378 22.7079 7.8916 22.6885 7.33606C22.6727 6.87955 22.606 6.42808 22.5797 5.97325C22.5674 5.75506 22.5902 5.52848 22.5358 5.31533C22.4796 5.10218 22.5287 4.88735 22.4989 4.6742C22.4901 4.60875 22.541 4.57686 22.5884 4.54329C22.7851 4.40231 22.7834 4.35532 22.5639 4.22273C22.4726 4.16734 22.4164 4.10692 22.4129 3.99279C22.4041 3.54971 22.3479 3.09991 22.7096 2.73739C22.7289 2.71725 22.7395 2.69039 22.7518 2.66522C22.7834 2.59808 22.7781 2.52424 22.757 2.46046C22.7166 2.33626 22.2057 2.02073 22.0634 2.02073C21.426 2.02073 20.7903 2.09626 20.1547 2.09122C19.6577 2.08787 19.231 2.14157 18.915 2.5578C18.8395 2.65683 18.8114 2.70046 18.8921 2.78942C19.2398 3.17711 19.454 3.60342 19.3592 4.13545C19.3399 4.24119 19.3224 4.31 19.2223 4.36874C19.0379 4.47784 19.0344 4.53826 19.2135 4.65238C19.3259 4.72455 19.3996 4.79504 19.3961 4.93099C19.3873 5.25827 19.3838 5.58555 19.3785 5.91282C19.2591 5.94807 19.1204 5.95143 19.0871 6.10919C19.0168 6.44822 18.8096 6.43647 18.6024 6.27031C18.411 6.1159 18.3636 6.04541 18.2284 6.31563C18.1511 6.46668 18.1388 6.53214 18.274 6.60766C18.3934 6.67647 18.411 6.74696 18.3425 6.86445C18.2635 7.00039 18.2705 7.15312 18.3653 7.279C18.4602 7.40488 18.4812 7.55089 18.497 7.69187C18.5076 7.78418 18.5111 7.91509 18.3847 7.96209C18.0984 8.07286 17.9053 8.30951 17.6419 8.45049C17.5822 8.48238 17.533 8.52434 17.4645 8.48573C17.2679 8.37329 17.0852 8.49748 16.8956 8.51091C16.8148 8.51594 16.8025 8.56294 16.8359 8.62839C16.9483 8.85665 17.2468 8.99595 17.5207 8.94224C17.5962 8.92714 17.6788 8.91036 17.7104 8.98924C17.7595 9.11008 17.8509 9.22253 17.8087 9.36519C17.7718 9.43904 17.7314 9.51121 17.7314 9.59512C17.5523 9.93415 17.3873 10.2782 17.2275 10.6256C16.655 11.8794 16.0773 13.1314 15.4961 14.3818C14.9043 15.659 14.3073 16.9329 13.7155 18.2084C13.6892 18.2655 13.5979 18.3175 13.6488 18.3846C13.7085 18.4635 13.8156 18.4333 13.8929 18.4148C14.3091 18.3192 14.7287 18.3376 15.1484 18.3561C15.1554 18.4199 15.1203 18.4551 15.0624 18.4853C14.9043 18.5709 14.7428 18.5609 14.5742 18.5256C14.4759 18.5055 14.3881 18.4786 14.2985 18.5743C14.0931 18.7925 13.9491 19.0761 13.6295 19.1802C13.5593 19.2037 13.4925 19.2977 13.4188 19.2238C13.3608 19.1634 13.3942 19.0812 13.4486 19.014C13.4908 18.962 13.4908 18.91 13.4346 18.8663C13.3837 18.8277 13.324 18.8328 13.2678 18.8462C13.201 18.8613 13.1536 18.9267 13.1835 18.9704C13.3222 19.1751 13.2116 19.3329 13.101 19.4974C13.0904 19.5142 13.1062 19.5477 13.108 19.5679C13.1624 19.583 13.187 19.5544 13.2151 19.5326C13.2748 19.4856 13.3187 19.395 13.4135 19.4386C13.5136 19.4856 13.4978 19.588 13.4732 19.6619C13.4346 19.7844 13.4697 19.8649 13.5944 19.875C13.7278 19.8851 13.8367 19.8297 13.835 19.6703C13.835 19.6132 13.8051 19.5259 13.8999 19.5175C13.9965 19.5091 14 19.5931 14.0105 19.6652C14.0351 19.8482 14.2318 19.964 14.3881 19.8566C14.6216 19.6938 14.7937 19.8213 14.9201 19.9539C15.0641 20.1066 15.1028 20.1167 15.1783 19.9186C15.2485 19.734 15.3328 19.7189 15.4803 19.8482C15.5611 19.9186 15.6541 19.9505 15.7402 19.9186C16.0229 19.8146 16.123 19.9724 16.1967 20.1838C16.2371 20.298 16.3074 20.3886 16.4443 20.3802C16.6147 20.3701 16.5356 20.2342 16.5479 20.1519C16.5795 19.9338 16.785 19.8465 16.9939 19.9338C17.1098 19.9807 17.231 20.1284 17.3855 19.9975C17.8245 20.9223 17.8368 21.8336 17.2995 22.7282C17.2644 22.7886 17.2187 22.844 17.1801 22.9011C17.159 22.933 17.1555 22.9699 17.1801 22.9984C17.2134 23.0337 17.2486 23.0035 17.2731 22.9833C17.4698 22.8339 17.7034 22.7551 17.9351 22.6745C18.0054 22.651 18.0581 22.6107 18.0914 22.5402C18.2512 22.1995 18.3671 21.8471 18.3934 21.4711C18.5427 21.4862 18.7201 21.5114 18.7218 21.6809C18.7236 21.889 18.8447 21.9847 19.0063 22.0585C19.3522 22.2146 19.3943 22.4949 19.3469 22.8088C19.3329 22.8977 19.3259 23.0555 19.152 22.9179C19.0976 22.8759 19.0572 22.9145 19.0326 22.9632C19.0028 23.0253 18.9554 23.0555 18.8869 23.0773C18.5655 23.178 18.4707 23.4549 18.3952 23.7201C18.332 23.9417 18.2916 24.1531 18.0282 24.2354L18.0177 24.2404ZM16.4074 21.2261C16.4074 21.1673 16.4285 21.1036 16.3653 21.0599C16.3653 21.0314 16.3653 21.0045 16.3653 20.976C16.3741 20.9592 16.3934 20.9357 16.3881 20.9273C16.3653 20.8954 16.3407 20.9089 16.3196 20.9341C16.2073 20.8904 16.0721 21.0096 15.972 20.8887C15.9579 20.8367 15.9263 20.7847 15.9316 20.7343C15.9421 20.6303 15.9088 20.5346 15.8087 20.5262C15.6822 20.5145 15.6822 20.6521 15.6717 20.7243C15.6559 20.835 15.626 20.929 15.5066 20.924C15.3767 20.9189 15.403 20.7998 15.3995 20.7142C15.3978 20.6269 15.382 20.5262 15.2942 20.5044C15.2239 20.4876 15.1976 20.5917 15.1554 20.6454C15.1502 20.6588 15.1449 20.6722 15.1396 20.6857C15.1467 20.7008 15.1431 20.7125 15.1326 20.7243C15.0308 20.731 14.9272 20.6454 14.8253 20.7276C14.8148 20.7192 14.7972 20.7108 14.7955 20.7024C14.7849 20.6168 14.8148 20.5077 14.6638 20.5128C14.5092 20.5178 14.5953 20.6353 14.5689 20.7008C14.5303 20.7964 14.5356 20.9273 14.36 20.8904C14.1826 20.8518 14.2968 20.7209 14.2687 20.6353C14.2494 20.5782 14.2704 20.501 14.1879 20.4843C14.1071 20.4675 14.079 20.5363 14.0457 20.59C14.0141 20.6454 14.0088 20.7041 13.9947 20.7645C13.9825 20.8199 13.9631 20.8837 13.8648 20.8954C13.6523 20.9206 13.691 20.7897 13.6962 20.6773C13.6997 20.6017 13.7278 20.4977 13.6207 20.4926C13.5189 20.4876 13.4627 20.5715 13.4732 20.6789C13.4767 20.7142 13.4715 20.7494 13.4732 20.783C13.4873 20.9089 13.3942 20.8871 13.3152 20.8887C13.2327 20.8887 13.1484 20.9022 13.1659 20.778C13.173 20.731 13.1712 20.6806 13.1677 20.6319C13.1624 20.5648 13.1291 20.491 13.0658 20.4876C12.9816 20.4826 12.9605 20.5631 12.9482 20.6353C12.9289 20.736 12.9816 20.8451 12.9078 20.9391C12.8288 20.9374 12.741 20.9139 12.6725 20.9391C12.5865 20.971 12.439 20.9072 12.4196 21.0616C12.4372 21.0901 12.4513 21.1405 12.4723 21.1438C12.5197 21.1522 12.5057 21.0985 12.5197 21.0717C12.5584 21.0767 12.597 21.0834 12.6339 21.0885C12.6865 21.117 12.7779 21.1069 12.7673 21.2043C12.6953 21.2093 12.6233 21.2143 12.5496 21.216C12.5022 21.2177 12.4372 21.1908 12.4267 21.2613C12.4179 21.3201 12.4793 21.3385 12.5215 21.362C12.6374 21.4308 12.748 21.3452 12.8604 21.3503C12.9306 21.4174 12.878 21.5164 12.9201 21.5836C12.9605 21.6507 12.9605 21.7799 13.0623 21.7648C13.1484 21.7531 13.1677 21.6423 13.1694 21.5567C13.1694 21.55 13.1694 21.5433 13.1694 21.5366C13.1519 21.4191 13.2344 21.399 13.3275 21.3872C13.4434 21.3738 13.482 21.4292 13.4785 21.5332C13.4785 21.5718 13.496 21.6138 13.5119 21.6524C13.5329 21.7027 13.5417 21.7715 13.6155 21.7682C13.6892 21.7632 13.6927 21.6994 13.6997 21.6423C13.7068 21.5886 13.7314 21.5366 13.7331 21.4845C13.7366 21.4174 13.7559 21.3788 13.8332 21.3838C13.9087 21.3889 13.9825 21.3939 13.9983 21.4845C14.0018 21.5114 13.9947 21.5399 14 21.5668C14.0176 21.6541 14.0457 21.7665 14.144 21.7648C14.2371 21.7648 14.2581 21.6541 14.2617 21.5668C14.2617 21.5466 14.2634 21.5248 14.2617 21.5047C14.2423 21.3872 14.3161 21.3872 14.4056 21.3906C14.5163 21.3956 14.5128 21.4594 14.5338 21.5416C14.5531 21.6138 14.5391 21.7481 14.6603 21.7481C14.7603 21.7481 14.7779 21.6473 14.7884 21.5584C14.8078 21.4107 14.9114 21.3687 15.0554 21.3939C15.187 21.4174 15.1344 21.5383 15.18 21.6087C15.2169 21.6625 15.2134 21.7648 15.3012 21.7564C15.3662 21.7497 15.3732 21.6608 15.3925 21.602C15.4048 21.5634 15.3978 21.5198 15.403 21.4778C15.4136 21.4073 15.468 21.3906 15.5312 21.3939C15.5839 21.3973 15.6524 21.3721 15.6629 21.4611C15.6682 21.508 15.7015 21.5517 15.7033 21.597C15.7068 21.6692 15.7296 21.7212 15.8087 21.7262C15.8965 21.7329 15.9123 21.6625 15.9263 21.602C15.9456 21.5215 15.9579 21.4392 15.9737 21.357C16.1195 21.3167 16.3109 21.4124 16.4057 21.2227L16.4074 21.2261ZM20.8272 29.6044C20.85 29.6984 20.9062 29.7571 21.0116 29.7655C21.1082 29.9216 21.2574 30.0307 21.3926 30.1499C21.4998 30.2439 21.5173 30.3378 21.4646 30.462C21.4172 30.5745 21.3347 30.6785 21.3505 30.8111C21.3013 30.838 21.3083 30.8833 21.3083 30.9269C21.1942 31.0092 21.3084 31.0914 21.3171 31.1686C21.354 31.5781 21.5419 31.9172 21.8843 32.1723C22.1073 32.3384 22.2812 32.3284 22.4726 32.1253C22.6798 31.9071 22.8044 31.6537 22.8676 31.3566C22.9572 30.937 22.9203 30.8632 22.4936 30.843C22.4936 30.8061 22.4936 30.7709 22.4936 30.7339C22.5358 30.7339 22.5797 30.7339 22.6218 30.7339C22.7799 30.7876 22.8079 30.7792 22.7957 30.6836C22.7623 30.6081 22.7412 30.5241 22.6921 30.4604C22.5762 30.3059 22.6165 30.1784 22.743 30.0592C22.815 29.9904 22.894 29.93 22.9677 29.8629C23.0099 29.8243 23.0555 29.7739 23.0292 29.7219C22.9923 29.6531 22.9168 29.6749 22.8554 29.6917C22.6165 29.7605 22.5112 29.9283 22.4427 30.1482C22.3198 30.546 22.311 30.5409 21.8896 30.5208C21.7912 30.5157 21.7491 30.4956 21.7491 30.3915C21.7456 30.1616 21.6718 29.9619 21.4453 29.8411C21.4576 29.7152 21.6736 29.7941 21.6648 29.6447C21.7667 29.6413 21.8685 29.6396 21.9704 29.6363C21.9932 29.6782 22.0265 29.6766 22.0581 29.6497C22.0968 29.6161 22.1038 29.5809 22.0511 29.5507C22.0441 29.4567 21.9949 29.3711 22.0213 29.2704C22.0353 29.2184 22.0213 29.1613 21.9335 29.163C21.4752 29.1697 21.0169 29.1697 20.5586 29.1764C20.4339 29.1781 20.3865 29.2503 20.3935 29.3694C20.4005 29.4752 20.4075 29.5608 20.5586 29.5557C20.6499 29.5524 20.7412 29.5859 20.8325 29.6027L20.8272 29.6044ZM2.24206 24.039C2.38604 24.2756 2.57042 24.4821 2.75129 24.6919C3.2693 25.291 3.84525 25.8281 4.52833 26.2578C5.64863 26.9644 6.99722 26.8066 7.87344 25.8801C8.28785 25.4421 8.63027 24.9621 8.88137 24.425C9.27471 23.5808 9.66453 22.7366 10.0544 21.8907C10.1228 21.7413 10.1492 21.5735 10.2861 21.4594C10.467 21.4543 10.6496 21.456 10.8305 21.4392C11.0061 21.4241 11.057 21.5198 11.0675 21.6541C11.0869 21.9192 11.1712 22.166 11.266 22.4127C11.2958 22.4899 11.3292 22.5721 11.4117 22.6141C11.6488 22.7349 11.8858 22.8541 12.1246 22.9699C12.1527 22.9833 12.2019 22.985 12.2265 22.9699C12.2669 22.9447 12.2616 22.8944 12.2405 22.8558C12.1984 22.7836 12.1457 22.7165 12.1036 22.6426C11.5206 21.6238 11.654 20.6353 12.244 19.6669C12.2792 19.6098 12.3775 19.5561 12.3248 19.4923C12.2792 19.437 12.1703 19.4554 12.1001 19.4789C11.7067 19.6065 11.3187 19.7441 11.187 20.1855C11.1676 20.2493 11.1079 20.2946 11.1062 20.3718C11.1062 20.4238 10.8129 20.5447 10.7831 20.5094C10.7146 20.4305 10.7673 20.3533 10.8024 20.2778C10.8481 20.1771 10.9236 20.0882 10.9376 19.974C10.9833 19.8884 11.0307 19.8028 11.0746 19.7156C11.7875 18.2705 12.4126 16.7868 13.1027 15.3317C13.849 13.7574 14.5883 12.1798 15.2819 10.5837C15.6664 9.69918 16.1142 8.84154 16.5216 7.96545C16.6006 7.79425 16.6902 7.6667 16.8886 7.6281C17.0747 7.59285 17.0554 7.50726 16.9465 7.40152C16.8921 7.34781 16.8008 7.29578 16.8499 7.21354C17.0501 6.87452 17.0852 6.4264 17.5523 6.2636C17.6577 6.22668 17.742 6.13605 17.8403 6.07562C17.9615 6.0001 17.9773 5.87758 17.9264 5.78191C17.7859 5.5117 17.6524 5.24316 17.317 5.10889C16.6603 4.84707 16.0159 4.55504 15.3749 4.25797C15.1344 4.1472 14.9131 4.13881 14.6673 4.22273C14.3863 4.31839 14.2722 4.47448 14.367 4.73966C14.4847 5.07029 14.4566 5.37072 14.2617 5.66107C14.2037 5.74835 14.1247 5.83394 14.1001 5.92961C14.0685 6.06052 14.0123 6.09241 13.8753 6.08402C13.6664 6.07227 13.6207 6.15115 13.7489 6.31898C13.8472 6.4499 13.8297 6.55731 13.7577 6.68319C13.6418 6.88459 13.5312 7.08767 13.4276 7.29578C11.9174 10.3487 10.4108 13.4033 8.90244 16.4579C8.26327 17.7519 7.62585 19.0442 6.99195 20.3399C6.94629 20.4322 6.88835 20.4373 6.80406 20.4356C6.58808 20.4305 6.37034 20.4138 6.15962 20.4792C5.98578 20.4792 5.80491 20.4457 5.6381 20.4792C5.11833 20.5866 4.58276 20.6219 4.07002 20.7662C3.47826 20.9324 2.90406 21.1338 2.42116 21.5148C1.97515 21.8655 1.7258 22.3053 1.78199 22.8742C1.82414 23.3022 1.98744 23.6865 2.2403 24.039H2.24206ZM22.8167 29.111C22.6271 29.111 22.4954 29.1076 22.3654 29.111C22.2899 29.1126 22.2109 29.1328 22.2302 29.2301C22.2531 29.3426 22.2074 29.5255 22.3479 29.544C22.7553 29.5977 23.1679 29.5289 23.5753 29.4987C23.7509 29.4852 23.6543 29.3224 23.6736 29.2251C23.6982 29.1026 23.5964 29.1328 23.5349 29.1361C23.275 29.1512 23.0169 29.0707 22.8167 29.1093V29.111Z" fill="#060708"/>
<path d="M18.0177 24.2404C18.2811 24.1598 18.3214 23.9467 18.3847 23.7251C18.4602 23.46 18.555 23.1847 18.8763 23.0823C18.9431 23.0605 18.9922 23.0303 19.0221 22.9682C19.0449 22.9195 19.0871 22.8793 19.1415 22.9229C19.3153 23.0605 19.3224 22.9028 19.3364 22.8138C19.3856 22.4999 19.3434 22.2213 18.9957 22.0636C18.8342 21.9914 18.7148 21.8957 18.7113 21.6859C18.7095 21.5164 18.5322 21.4913 18.3829 21.4762C18.397 21.4476 18.4092 21.4208 18.4233 21.3922C18.469 21.3889 18.5041 21.3721 18.5339 21.3369C18.6814 21.164 18.8289 21.018 19.1099 21.0918C19.2749 21.1355 19.4716 21.1271 19.4751 20.8703C19.4751 20.7813 19.5524 20.7645 19.6332 20.7662C19.6472 21.0918 19.6665 21.4174 19.6753 21.743C19.6823 22.0418 19.663 22.3439 19.6823 22.6409C19.7016 22.9313 19.6577 23.2166 19.6771 23.5086C19.7174 24.1263 19.6858 24.7473 19.6823 25.3666C19.4523 25.4438 19.5418 25.6418 19.5717 25.7559C19.6894 26.1957 19.5032 26.2125 19.1362 26.2057C19.0256 26.2041 18.9641 26.1621 18.9185 26.0715C18.8553 25.9473 18.7815 25.8281 18.7078 25.709C18.6779 25.6586 18.6621 25.573 18.5778 25.5948C18.4988 25.6166 18.5076 25.6838 18.5304 25.7509C18.5585 25.8281 18.497 25.8684 18.4391 25.8953C18.3706 25.9271 18.3109 25.8869 18.2653 25.8432C18.1985 25.7794 18.2003 25.6939 18.202 25.6083C18.202 25.4723 18.174 25.3498 18.03 25.2827C18.0264 24.9336 18.0229 24.5845 18.0177 24.237V24.2404Z" fill="#030405"/>
<path d="M18.03 25.2877C18.174 25.3548 18.202 25.4773 18.202 25.6133C18.202 25.6972 18.1985 25.7828 18.2653 25.8483C18.3109 25.8919 18.3706 25.9322 18.4391 25.9003C18.497 25.8734 18.5585 25.8348 18.5304 25.7559C18.5076 25.6905 18.4988 25.6217 18.5778 25.5999C18.6621 25.5764 18.6779 25.662 18.7078 25.714C18.7798 25.8331 18.8535 25.9523 18.9185 26.0765C18.9659 26.1671 19.0256 26.2091 19.1362 26.2108C19.5032 26.2175 19.6894 26.2007 19.5717 25.761C19.5418 25.6469 19.4523 25.4488 19.6823 25.3716C19.7332 25.474 19.7368 25.5831 19.735 25.6938C19.7332 26.001 19.7385 26.3064 19.728 26.6136C19.7245 26.7445 19.7649 26.8116 19.9071 26.8032C19.8948 26.9006 19.9247 26.9895 19.951 27.0802C19.7613 27.0802 19.5717 27.0818 19.3821 27.0835C19.3838 27.003 19.3698 26.9341 19.2662 26.9224C19.2223 26.9174 19.1766 26.9224 19.152 26.9593C19.1029 27.0332 19.1555 27.0835 19.21 27.1288C19.1907 27.2732 19.1151 27.4158 19.1994 27.5602C19.1222 27.5618 19.0414 27.4628 18.9676 27.5568C18.9027 27.6391 19.0063 27.6877 19.0238 27.7549C19.0273 27.7683 19.0291 27.7817 19.0309 27.7951C18.9993 27.8237 18.9676 27.8522 18.936 27.8807C18.9027 27.8925 18.8482 27.8942 18.8377 27.916C18.7253 28.1509 18.5497 28.0486 18.3706 28.0184C18.1546 27.9814 17.9281 28.0519 17.7929 28.1929C17.612 28.3826 17.598 28.2013 17.5523 28.1258C17.4997 28.0368 17.4821 27.9311 17.447 27.8337C17.4224 27.7649 17.3873 27.7045 17.2942 27.7163C17.2433 27.5568 17.3399 27.4293 17.3925 27.2916C17.5084 27.3101 17.6296 27.3 17.6472 27.1708C17.677 26.9644 17.8895 26.7613 17.6753 26.5448L17.6875 26.5028C17.9334 26.4961 17.9966 26.4306 17.9527 26.2326C17.9439 26.1923 17.9387 26.152 17.9334 26.1118C18.0774 25.8483 17.9931 25.5629 18.0282 25.2877H18.03Z" fill="#050606"/>
<path d="M17.677 26.5431C17.893 26.7596 17.6805 26.9627 17.6489 27.1691C17.6296 27.2983 17.5102 27.3067 17.3943 27.29C17.4803 27.0382 17.5225 26.7713 17.677 26.5431Z" fill="#060708"/>
<path d="M17.9351 26.1101C17.9422 26.1504 17.9457 26.1906 17.9545 26.2309C17.9984 26.4273 17.9334 26.4927 17.6893 26.5011C17.7437 26.3551 17.8228 26.2242 17.9351 26.1118V26.1101Z" fill="#060708"/>
<path d="M12.8411 4.81518C12.8621 4.837 12.8586 4.85714 12.8341 4.87393C12.8165 4.85211 12.82 4.83365 12.8411 4.81518Z" fill="#7E7F7D"/>
<path d="M19.9106 26.8032C19.7684 26.8116 19.728 26.7445 19.7315 26.6136C19.7403 26.3064 19.735 26.001 19.7385 25.6938C19.7385 25.5831 19.7368 25.474 19.6858 25.3716C19.6876 24.7523 19.7192 24.1296 19.6806 23.5137C19.6613 23.2216 19.7052 22.9346 19.6858 22.646C19.6665 22.3472 19.6858 22.0468 19.6788 21.748C19.67 21.4224 19.6507 21.0968 19.6367 20.7712C19.6349 20.5346 19.6332 20.2963 19.6314 20.0596C19.6542 19.823 19.6068 19.588 19.6103 19.353C19.6296 18.1195 19.5401 16.8892 19.5348 15.6556C19.526 13.8027 19.512 11.9482 19.4488 10.0953C19.4189 9.24603 19.3908 8.39678 19.3873 7.54754C19.4102 7.22697 19.3961 6.90641 19.3803 6.58416C19.3768 6.36094 19.375 6.13772 19.3715 5.9145C19.3768 5.58722 19.3803 5.25995 19.3891 4.93267C19.3926 4.79672 19.3188 4.72623 19.2065 4.65406C19.0273 4.53993 19.0309 4.47951 19.2152 4.37042C19.3153 4.31168 19.3329 4.24119 19.3522 4.13713C19.447 3.60509 19.2328 3.17879 18.8851 2.79109C18.8043 2.70214 18.8324 2.65851 18.9079 2.55948C19.2258 2.14325 19.6507 2.08954 20.1477 2.0929C20.7833 2.09794 21.419 2.02409 22.0564 2.02241C22.1986 2.02241 22.7096 2.33794 22.75 2.46214C22.7711 2.52592 22.7763 2.59976 22.7447 2.6669C22.7324 2.69207 22.7219 2.7206 22.7026 2.73907C22.3409 3.10159 22.3971 3.55139 22.4058 3.99447C22.4076 4.1086 22.4655 4.16902 22.5568 4.2244C22.7746 4.35699 22.7781 4.40399 22.5814 4.54497C22.534 4.57854 22.4831 4.61042 22.4919 4.67588C22.5217 4.88903 22.4726 5.10386 22.5287 5.31701C22.5849 5.53016 22.5604 5.75674 22.5726 5.97492C22.599 6.42976 22.6657 6.88123 22.6815 7.33774C22.7008 7.89328 22.7921 8.44545 22.8448 8.99931C22.8835 9.41218 22.8993 9.82673 22.9432 10.2379C23.0169 10.9294 22.98 11.6276 23.1065 12.3157C23.124 12.4097 23.11 12.5104 23.11 12.6078C23.11 13.0827 23.1574 13.5543 23.2382 14.0243C23.2698 14.2072 23.2645 14.3969 23.2733 14.5815C23.2996 15.1807 23.3927 15.7748 23.419 16.374C23.4471 17.0067 23.5367 17.6344 23.5577 18.2705C23.5788 18.9083 23.6842 19.5427 23.7281 20.1805C23.7702 20.7847 23.8176 21.3906 23.8686 21.9948C23.923 22.6527 23.9634 23.3123 24.0213 23.9685C24.06 24.4099 24.1214 24.848 24.1302 25.2944C24.1372 25.6586 24.132 26.0346 24.2443 26.3971C24.3111 26.6169 24.2549 26.669 24.0178 26.669C22.836 26.669 21.6543 26.6757 20.476 26.7428C20.2881 26.7529 20.102 26.7848 19.9141 26.8066L19.9106 26.8032Z" fill="white"/>
<path d="M10.2861 21.4594C10.1474 21.5735 10.1228 21.743 10.0544 21.8907C9.66453 22.7366 9.27471 23.5808 8.88137 24.425C8.63027 24.9638 8.28785 25.4438 7.87344 25.8801C6.99722 26.8049 5.64863 26.9627 4.52833 26.2578C3.84525 25.8281 3.2693 25.2894 2.75129 24.6919C2.57042 24.4838 2.38604 24.2756 2.24206 24.039C2.37024 23.9601 2.36146 23.851 2.32985 23.7268C2.27542 23.5137 2.35795 23.4012 2.58447 23.3609C2.77587 23.3274 2.89528 23.2418 2.93039 23.0421C2.96903 22.8188 2.99712 22.5872 3.13233 22.3892C3.28159 22.1693 3.4168 22.1458 3.63278 22.3103C3.7118 22.3707 3.77502 22.4395 3.81189 22.5402C3.88915 22.7483 3.97695 22.9531 4.11567 23.136C4.29303 23.3693 4.61964 23.3828 4.84791 23.1545C5.1833 23.2082 5.42036 23.0169 5.6697 22.8558C5.77155 22.8591 5.89271 22.8826 5.80316 22.7165C5.81369 22.6342 5.91905 22.6158 5.93485 22.5419C5.99456 22.2583 6.16489 22.0199 6.28429 21.7632C6.41599 21.4795 6.42653 21.4845 6.11748 21.4711C6.11923 21.409 6.09816 21.3301 6.16489 21.2982C6.35278 21.2043 6.3879 21.0146 6.48447 20.8636C6.55471 20.7511 6.57578 20.6773 6.38614 20.6789C6.26673 20.6789 6.15435 20.6319 6.16313 20.4809C6.37385 20.4154 6.59159 20.4322 6.80757 20.4373C6.89186 20.4389 6.95156 20.4322 6.99546 20.3416C7.62936 19.0459 8.26854 17.7536 8.90595 16.4596C10.4143 13.405 11.9209 10.3521 13.4311 7.29746C13.5329 7.08935 13.6453 6.88627 13.7612 6.68486C13.8332 6.55731 13.8508 6.45157 13.7524 6.32066C13.6242 6.15115 13.6699 6.07227 13.8789 6.08569C14.0141 6.09409 14.0703 6.0622 14.1036 5.93129C14.1264 5.83562 14.2055 5.75002 14.2652 5.66275C14.4601 5.3724 14.4882 5.07197 14.3705 4.74134C14.2757 4.47616 14.3898 4.32007 14.6708 4.22441C14.9149 4.14217 15.1379 4.14888 15.3784 4.25965C16.0194 4.55672 16.6638 4.84875 17.3205 5.11057C17.6559 5.24484 17.7876 5.51338 17.9299 5.78359C17.9808 5.88094 17.965 6.00178 17.8438 6.0773C17.7455 6.13772 17.6612 6.22835 17.5558 6.26528C17.0888 6.42808 17.0519 6.87787 16.8535 7.21522C16.8061 7.29746 16.8956 7.35117 16.95 7.4032C17.0572 7.50893 17.0782 7.59453 16.8921 7.62978C16.6937 7.66838 16.6059 7.79593 16.5251 7.96712C16.1177 8.84154 15.6699 9.70086 15.2854 10.5853C14.5918 12.1815 13.8508 13.7591 13.1062 15.3334C12.4161 16.7885 11.791 18.2722 11.0781 19.7172C11.0359 19.8045 10.9868 19.8884 10.9411 19.9757C10.8498 19.9975 10.7585 20.016 10.6707 20.0428C10.5741 20.0714 10.5144 20.1469 10.5531 20.2325C10.6005 20.3433 10.5829 20.4356 10.5776 20.5497C10.5653 20.7679 10.4775 20.9257 10.3564 21.0801C10.2598 21.2043 10.2264 21.3201 10.2932 21.4611L10.2861 21.4594Z" fill="#FEFEFE"/>
<path d="M19.368 5.91115C19.3715 6.13437 19.3733 6.35759 19.3768 6.58081C19.3101 6.58416 19.2662 6.61941 19.2486 6.67647C19.1959 6.85774 19.0835 6.95676 18.8798 6.96347C18.7903 6.96683 18.7622 7.03732 18.778 7.11452C18.7956 7.19508 18.8201 7.27397 18.8465 7.35285C18.9518 7.67677 19.0449 7.71201 19.3417 7.54921C19.354 7.5425 19.3698 7.54418 19.3838 7.5425C19.3873 8.39175 19.4154 9.24267 19.4453 10.0902C19.5085 11.9431 19.5225 13.7977 19.5313 15.6506C19.5366 16.8842 19.6261 18.1144 19.6068 19.348C19.6033 19.5813 19.6507 19.8179 19.6279 20.0546C19.5085 20.0445 19.4979 20.1435 19.4541 20.2107C19.4277 20.2493 19.4137 20.308 19.3469 20.2946C19.2925 20.2829 19.3013 20.2325 19.2925 20.1939C19.2679 20.0798 19.2556 19.964 19.2451 19.8465C19.2293 19.6518 19.1538 19.5024 18.9132 19.447C18.6586 19.39 18.4163 19.5108 18.1634 19.4554C18.0897 19.4386 17.9773 19.5226 18.0563 19.6417C18.1002 19.7089 18.1248 19.7558 18.0089 19.7575C17.8912 19.6317 17.7016 19.6551 17.5699 19.5595C17.6735 19.5091 17.7736 19.4605 17.8965 19.4638C17.9755 19.4672 18.0036 19.3984 18.0124 19.3363C18.0212 19.2675 17.9632 19.2591 17.9123 19.2607C17.8298 19.2607 17.7753 19.2205 17.7332 19.1617C17.7034 19.1198 17.6612 19.066 17.6156 19.1147C17.5084 19.2272 17.2925 19.2792 17.3662 19.4991C17.2872 19.5561 17.145 19.343 17.1028 19.5544C17.1151 19.5679 17.1256 19.5813 17.1379 19.5947C17.145 19.6082 17.152 19.6199 17.159 19.6333C17.0378 19.781 17.1274 19.8079 17.2679 19.8045C17.3118 19.8666 17.3609 19.9254 17.3715 20.0042C17.2169 20.1352 17.094 19.9875 16.9799 19.9405C16.7709 19.8549 16.5672 19.9405 16.5339 20.1587C16.5216 20.2409 16.6006 20.3752 16.4303 20.3869C16.2933 20.3953 16.2213 20.3047 16.1827 20.1905C16.1089 19.9791 16.0088 19.8213 15.7261 19.9254C15.6401 19.9573 15.547 19.9254 15.4662 19.8549C15.3205 19.7256 15.2362 19.7407 15.1642 19.9254C15.0887 20.1234 15.0483 20.1133 14.9061 19.9606C14.7797 19.828 14.6076 19.7005 14.374 19.8633C14.2178 19.9707 14.0211 19.8566 13.9965 19.6719C13.986 19.5998 13.9825 19.5158 13.8859 19.5242C13.7911 19.531 13.8209 19.6199 13.8209 19.677C13.8227 19.8364 13.7155 19.8918 13.5803 19.8817C13.4557 19.8733 13.4205 19.7911 13.4592 19.6686C13.482 19.5947 13.4996 19.4907 13.3995 19.4454C13.3047 19.4017 13.259 19.4923 13.201 19.5393C13.173 19.5612 13.1484 19.588 13.0939 19.5746C13.0922 19.5544 13.0764 19.5209 13.0869 19.5041C13.1993 19.3396 13.3082 19.1819 13.1694 18.9771C13.1396 18.9318 13.187 18.868 13.2537 18.8529C13.3099 18.8395 13.3714 18.8344 13.4205 18.873C13.4767 18.9167 13.4767 18.9687 13.4346 19.0207C13.3819 19.0862 13.3468 19.1701 13.4047 19.2305C13.4767 19.3044 13.5452 19.2104 13.6155 19.1869C13.935 19.0812 14.079 18.7992 14.2845 18.581C14.374 18.4853 14.4618 18.5122 14.5602 18.5323C14.727 18.5659 14.8903 18.576 15.0483 18.4921C15.1063 18.4618 15.1414 18.4266 15.1344 18.3628C15.5769 18.388 16.0141 18.4501 16.4461 18.5374C16.8974 18.628 17.3293 18.7807 17.7455 18.9704C17.8842 19.0342 17.9509 19.0258 17.9387 18.8512C17.9141 18.4988 17.9053 18.1463 17.8895 17.7922C17.7999 15.7194 17.8772 13.6433 17.7666 11.5705C17.7332 10.9462 17.7385 10.3168 17.7911 9.69079C17.828 9.58505 17.7911 9.47764 17.7947 9.37022C17.8368 9.22756 17.7455 9.11344 17.6963 8.99427C17.6647 8.91371 17.5822 8.93217 17.5067 8.94728C17.2328 9.00099 16.9342 8.86168 16.8219 8.63343C16.7902 8.56797 16.8008 8.52098 16.8816 8.51594C17.0712 8.50252 17.2538 8.37832 17.4505 8.49077C17.519 8.52937 17.5664 8.48741 17.6278 8.45552C17.8912 8.31454 18.0844 8.0779 18.3706 7.96712C18.4953 7.91845 18.4935 7.78754 18.483 7.69691C18.4672 7.55593 18.4461 7.41159 18.3513 7.28404C18.2565 7.15816 18.2495 7.00543 18.3285 6.86948C18.397 6.752 18.3794 6.68151 18.26 6.6127C18.1248 6.53549 18.1388 6.47171 18.2143 6.32066C18.3495 6.05045 18.397 6.12094 18.5884 6.27535C18.7956 6.4415 19.0028 6.45325 19.073 6.11423C19.1064 5.95646 19.2451 5.9531 19.3645 5.91786L19.368 5.91115ZM18.5181 6.63284C18.4637 6.64626 18.4637 6.68822 18.469 6.73018C18.4742 6.77382 18.4953 6.81578 18.5462 6.81074C18.6059 6.80403 18.5919 6.752 18.5919 6.7134C18.5919 6.66976 18.5796 6.63116 18.5164 6.63451L18.5181 6.63284Z" fill="#030405"/>
<path d="M4.84791 23.1545C4.61964 23.3828 4.29303 23.3693 4.11567 23.136C3.97695 22.9531 3.88915 22.7483 3.81189 22.5402C3.77502 22.4412 3.7118 22.3707 3.63278 22.3103C3.4168 22.1458 3.28159 22.1693 3.13233 22.3892C2.99712 22.5872 2.96903 22.8188 2.93039 23.0421C2.89528 23.2418 2.77587 23.3274 2.58447 23.3609C2.35619 23.4012 2.27366 23.5154 2.32985 23.7268C2.36146 23.851 2.37024 23.9601 2.24206 24.039C1.9892 23.6865 1.82414 23.3022 1.78375 22.8742C1.72931 22.3069 1.97866 21.8655 2.42292 21.5148C2.90581 21.1338 3.48001 20.9324 4.07177 20.7662C4.58452 20.6219 5.12009 20.5883 5.63985 20.4792C5.80667 20.4457 5.98753 20.4775 6.16138 20.4792C6.1526 20.6303 6.26498 20.6789 6.38438 20.6773C6.57403 20.6756 6.55296 20.7494 6.48272 20.8619C6.38789 21.0129 6.35278 21.2043 6.16313 21.2966C6.09816 21.3285 6.11923 21.4073 6.11572 21.4694C5.86813 21.5618 5.60298 21.5802 5.34661 21.6373C4.93922 21.7279 4.55993 21.8605 4.30181 22.2012C4.22981 22.2969 4.21928 22.3825 4.26493 22.505C4.37731 22.7937 4.56169 23.0102 4.8444 23.1528L4.84791 23.1545Z" fill="#FBFAFA"/>
<path d="M10.2861 21.4594C10.2194 21.3184 10.2528 21.2026 10.3494 21.0784C10.4705 20.924 10.5566 20.7662 10.5706 20.548C10.5776 20.4339 10.5952 20.3416 10.546 20.2308C10.5092 20.1435 10.5671 20.0697 10.6637 20.0412C10.7532 20.0143 10.8445 19.9959 10.9341 19.974C10.92 20.0882 10.8445 20.1771 10.7989 20.2778C10.7638 20.355 10.7111 20.4305 10.7796 20.5094C10.8094 20.5447 11.1027 20.4255 11.1027 20.3718C11.1027 20.2946 11.1641 20.2493 11.1834 20.1855C11.3134 19.7441 11.7015 19.6065 12.0965 19.4789C12.1685 19.4554 12.2757 19.437 12.3213 19.4923C12.374 19.5561 12.2757 19.6098 12.2405 19.6669C11.6505 20.6353 11.5171 21.6238 12.1001 22.6426C12.1422 22.7148 12.1949 22.7819 12.237 22.8558C12.2581 22.8927 12.2634 22.943 12.223 22.9699C12.1984 22.985 12.1492 22.9833 12.1211 22.9699C11.8823 22.8541 11.6453 22.7349 11.4082 22.6141C11.3257 22.5721 11.2923 22.4899 11.2625 22.4127C11.1694 22.1676 11.0834 21.9192 11.064 21.6541C11.0535 21.5198 11.0043 21.4224 10.827 21.4392C10.6461 21.456 10.4635 21.4527 10.2826 21.4594L10.2861 21.4594Z" fill="#F8F7F6"/>
<path d="M18.9396 27.8807C18.9712 27.8522 19.0028 27.8237 19.0344 27.7951C19.296 27.78 19.5594 27.7633 19.821 27.7481C20.7956 27.7884 21.7702 27.7028 22.7447 27.7012C22.9607 27.7012 23.2013 27.7263 23.4173 27.6323C23.5472 27.629 23.6754 27.6256 23.8053 27.6239C23.8668 27.6391 23.9265 27.6357 23.9862 27.6156C24.0125 27.6156 24.0389 27.6156 24.0652 27.6172C24.0968 27.6172 24.1284 27.6172 24.16 27.6172C24.1864 27.6172 24.2127 27.6172 24.2391 27.6172C24.2566 27.6172 24.2742 27.6172 24.2917 27.6156C24.5025 27.6156 24.7114 27.6189 24.9221 27.6156C25.0644 27.6122 25.1276 27.6525 25.1241 27.8052C25.117 28.1157 25.1258 28.1157 24.7781 28.1124C24.7571 28.1124 24.7378 28.1124 24.7167 28.114C24.5306 28.114 24.3427 28.0922 24.1565 28.1375C24.1284 28.1358 24.0986 28.1325 24.0705 28.1308C22.52 28.114 20.9712 28.2047 19.4207 28.2265C19.3346 28.2265 19.2486 28.2516 19.1626 28.2651C18.9852 28.2852 18.9202 28.2063 18.9431 28.0435C18.9501 27.9915 18.9395 27.9361 18.9378 27.8824L18.9396 27.8807Z" fill="#FCFBFB"/>
<path d="M19.2029 27.5618C19.1187 27.4158 19.1942 27.2732 19.2135 27.1305C19.2644 27.0919 19.3259 27.0936 19.3856 27.0852C19.5752 27.0852 19.7649 27.0835 19.9545 27.0818C20.6235 27.0701 21.2961 27.0818 21.9633 27.0365C22.304 27.013 22.6411 27.0114 22.98 27.0063C23.4699 26.9979 23.9564 26.9174 24.4463 26.9174C24.6271 26.9174 24.7009 26.9442 24.6868 27.1423C24.664 27.4645 24.6798 27.4662 24.3321 27.4695C24.0108 27.4729 23.6912 27.4779 23.3699 27.4813C22.9783 27.446 22.5867 27.5048 22.1969 27.4998C21.6086 27.493 21.0239 27.5451 20.4374 27.5585C20.2337 27.5635 20.0212 27.5686 19.8158 27.6055C19.6086 27.6139 19.3943 27.7062 19.1994 27.5635L19.2029 27.5618Z" fill="#FCFCFB"/>
<path d="M24.1583 28.2903C24.304 28.2936 24.4498 28.302 24.5938 28.297C24.7588 28.2903 24.8501 28.3339 24.8624 28.5118C24.8765 28.7065 24.7641 28.7501 24.6061 28.7568C24.2373 28.7753 23.8703 28.787 23.5016 28.8055C22.6973 28.8475 21.8913 28.8206 21.0871 28.8575C20.6586 28.8777 20.2319 28.8693 19.8052 28.8794C19.7157 28.881 19.6384 28.9096 19.5541 28.9247C19.2714 28.9717 19.2152 28.928 19.2082 28.6444C19.2082 28.5823 19.2047 28.5202 19.2556 28.4715C19.3171 28.4262 19.3873 28.4245 19.4611 28.4228C20.0124 28.4111 20.5621 28.4312 21.1152 28.391C21.7298 28.3473 22.3496 28.3507 22.9677 28.3339C23.0029 28.3389 23.038 28.344 23.0626 28.3121C23.4278 28.3037 23.7913 28.2953 24.1565 28.2869L24.1583 28.2903Z" fill="#FCFBFB"/>
<path d="M15.1309 20.7259C15.1431 20.7142 15.1449 20.7024 15.1379 20.6873C15.1431 20.6739 15.1484 20.6605 15.1537 20.6471C15.1958 20.5933 15.2204 20.4893 15.2924 20.5061C15.3802 20.5279 15.3943 20.6286 15.3978 20.7159C15.3995 20.8015 15.3749 20.9206 15.5049 20.9257C15.6243 20.9307 15.6541 20.8367 15.6699 20.7259C15.6805 20.6538 15.6805 20.5161 15.8069 20.5279C15.9088 20.538 15.9421 20.6319 15.9298 20.736C15.9246 20.7864 15.9562 20.8384 15.9702 20.8904C15.9614 20.9508 15.9544 21.0096 16.0001 21.0599C16.0036 21.1153 16.0088 21.1724 16.0124 21.2278C15.972 21.2647 15.9649 21.3117 15.9737 21.362C15.9579 21.4443 15.9456 21.5265 15.9263 21.6071C15.9123 21.6675 15.8965 21.738 15.8087 21.7313C15.7296 21.7262 15.7051 21.6742 15.7033 21.602C15.7015 21.5567 15.6682 21.5114 15.6629 21.4661C15.6524 21.3755 15.5839 21.4023 15.5312 21.399C15.468 21.3956 15.4136 21.4124 15.403 21.4829C15.396 21.5231 15.403 21.5685 15.3925 21.6071C15.3732 21.6658 15.3662 21.7548 15.3012 21.7615C15.2134 21.7699 15.2169 21.6692 15.18 21.6138C15.1344 21.545 15.187 21.4224 15.0554 21.399C14.9131 21.3738 14.8095 21.4157 14.7884 21.5634C14.7762 21.6524 14.7586 21.7514 14.6603 21.7531C14.5391 21.7531 14.5514 21.6188 14.5338 21.5466C14.5128 21.4644 14.5163 21.4006 14.4056 21.3956C14.3161 21.3922 14.2423 21.3922 14.2617 21.5097C14.2652 21.5299 14.2617 21.5517 14.2617 21.5718C14.2581 21.6591 14.2371 21.7682 14.144 21.7699C14.0457 21.7699 14.0176 21.6591 14 21.5718C13.9947 21.545 14.0018 21.5164 13.9983 21.4896C13.9842 21.3973 13.9087 21.3922 13.8332 21.3889C13.7559 21.3838 13.7349 21.4224 13.7331 21.4896C13.7314 21.5433 13.7068 21.5953 13.6997 21.6473C13.6927 21.7044 13.6892 21.7682 13.6155 21.7732C13.5417 21.7766 13.5329 21.7078 13.5119 21.6574C13.496 21.6188 13.4767 21.5785 13.4785 21.5383C13.482 21.4342 13.4434 21.3788 13.3275 21.3922C13.2344 21.4023 13.1519 21.4241 13.1694 21.5416C13.1694 21.5483 13.1694 21.555 13.1694 21.5618C13.1659 21.649 13.1484 21.7581 13.0623 21.7699C12.9587 21.785 12.9605 21.6541 12.9201 21.5886C12.878 21.5198 12.9306 21.4224 12.8604 21.3553C12.8639 21.3033 12.8674 21.2496 12.8709 21.1976C12.8762 21.1573 12.8815 21.117 12.8885 21.075C12.8955 21.0314 12.9025 20.9878 12.9096 20.9441C12.9833 20.8501 12.9324 20.741 12.9499 20.6403C12.9622 20.5698 12.9833 20.4876 13.0676 20.4926C13.1326 20.496 13.1659 20.5698 13.1694 20.637C13.173 20.6857 13.1747 20.7343 13.1677 20.783C13.1484 20.9072 13.2344 20.8954 13.3169 20.8938C13.396 20.8938 13.4873 20.9139 13.475 20.788C13.4715 20.7528 13.4767 20.7175 13.475 20.684C13.4644 20.5766 13.5189 20.4926 13.6225 20.4977C13.7296 20.5027 13.7015 20.6051 13.698 20.6823C13.6927 20.7947 13.6541 20.9257 13.8666 20.9005C13.9667 20.8887 13.986 20.825 13.9965 20.7696C14.0088 20.7092 14.0141 20.6487 14.0474 20.595C14.079 20.5396 14.1089 20.4725 14.1897 20.4893C14.2722 20.5061 14.2511 20.585 14.2704 20.6403C14.2985 20.7243 14.1844 20.8568 14.3617 20.8954C14.5373 20.934 14.5338 20.8015 14.5707 20.7058C14.597 20.6403 14.511 20.5229 14.6655 20.5178C14.8165 20.5128 14.7884 20.6219 14.7972 20.7075C14.7972 20.7175 14.8165 20.7243 14.8271 20.7326C14.8288 20.8283 14.8271 20.9408 14.964 20.9391C15.094 20.9391 15.1432 20.8485 15.1344 20.7293L15.1309 20.7259ZM14.5461 21.1203C14.5391 21.0784 14.5128 21.0599 14.4706 21.0633C14.4039 21.07 14.3653 21.1069 14.36 21.1707C14.3582 21.2059 14.3863 21.2227 14.4162 21.2177C14.4741 21.2059 14.5286 21.1841 14.5444 21.1203H14.5461Z" fill="#F3F3F2"/>
<path d="M17.1625 19.6333C17.1555 19.6199 17.1485 19.6082 17.1414 19.5947C17.1467 19.5679 17.1309 19.5578 17.1063 19.5544C17.1485 19.3413 17.2907 19.5544 17.3697 19.4991C17.4242 19.5595 17.4997 19.5561 17.5734 19.5612C17.7051 19.6568 17.8965 19.6333 18.0124 19.7592C18.0177 19.8717 18.1142 19.9405 18.1652 20.0311C18.4022 20.4608 18.4286 20.9257 18.4251 21.3956C18.411 21.4241 18.3987 21.451 18.3847 21.4795C18.3566 21.8555 18.2424 22.2079 18.0826 22.5486C18.0493 22.6191 17.9966 22.6594 17.9264 22.6829C17.6928 22.7634 17.461 22.8407 17.2644 22.9917C17.238 23.0118 17.2029 23.0421 17.1713 23.0068C17.145 22.98 17.1502 22.9414 17.1713 22.9095C17.2099 22.8507 17.2538 22.7953 17.2907 22.7366C17.828 21.8404 17.8157 20.929 17.3767 20.0059C17.368 19.927 17.317 19.8683 17.2731 19.8062C17.2363 19.7491 17.2011 19.6921 17.1643 19.635L17.1625 19.6333Z" fill="#F8F7F6"/>
<path d="M22.4954 30.8447C22.9221 30.8648 22.959 30.9387 22.8694 31.3583C22.8062 31.6537 22.6815 31.9071 22.4743 32.127C22.2829 32.3284 22.1091 32.3384 21.8861 32.174C21.5419 31.9188 21.3558 31.5815 21.3189 31.1703C21.3119 31.0914 21.196 31.0109 21.3101 30.9286C21.7105 30.9605 22.102 30.8749 22.4971 30.8464L22.4954 30.8447Z" fill="#F8F7F6"/>
<path d="M22.9695 28.3373C22.3514 28.354 21.7333 28.349 21.117 28.3943C20.5656 28.4329 20.0142 28.4145 19.4628 28.4262C19.3891 28.4262 19.3188 28.4312 19.2574 28.4749C19.2205 28.4061 19.1468 28.354 19.1643 28.2651C19.2504 28.2517 19.3364 28.2282 19.4224 28.2265C20.973 28.2047 22.52 28.114 24.0722 28.1308C24.1003 28.1308 24.1302 28.1342 24.1583 28.1375C24.1583 28.1879 24.1583 28.2399 24.1583 28.2903C23.793 28.2986 23.4296 28.307 23.0643 28.3154C23.0257 28.2986 22.9923 28.2953 22.9695 28.3373Z" fill="#292828"/>
<path d="M22.6236 30.7356C22.5814 30.7356 22.5375 30.7356 22.4954 30.7356C22.1108 30.7121 21.7298 30.7591 21.3505 30.8128C21.3347 30.6802 21.4172 30.5762 21.4646 30.4637C21.5173 30.3395 21.4998 30.2455 21.3926 30.1515C21.2557 30.0324 21.1064 29.9233 21.0116 29.7672C21.1626 29.7571 21.3119 29.7555 21.4436 29.8427C21.6701 29.9636 21.7438 30.165 21.7473 30.3932C21.7473 30.4973 21.7895 30.5174 21.8878 30.5225C22.3093 30.5409 22.318 30.5476 22.441 30.1499C22.5094 29.93 22.6148 29.7622 22.8536 29.6934C22.9151 29.6766 22.9923 29.6531 23.0274 29.7236C23.0538 29.7756 23.0081 29.8259 22.966 29.8645C22.8922 29.9317 22.8132 29.9921 22.7412 30.0609C22.6148 30.1801 22.5744 30.3076 22.6903 30.462C22.7395 30.5275 22.7605 30.6097 22.7939 30.6853C22.736 30.702 22.678 30.7188 22.6201 30.7356H22.6236Z" fill="#F3F3F2"/>
<path d="M19.8193 27.6038C20.0247 27.5652 20.2355 27.5602 20.4409 27.5568C21.0274 27.5434 21.6121 27.4914 22.2004 27.4981C22.5902 27.5014 22.98 27.4444 23.3734 27.4796C23.3822 27.5333 23.3505 27.5971 23.419 27.634C23.203 27.7263 22.9625 27.7012 22.7465 27.7028C21.7719 27.7062 20.7991 27.7901 19.8228 27.7498C19.8228 27.7012 19.8228 27.6542 19.8228 27.6055L19.8193 27.6038Z" fill="#2D2B2A"/>
<path d="M21.9668 29.638C21.865 29.6413 21.7631 29.643 21.6613 29.6464C21.3839 29.6195 21.1082 29.5675 20.8272 29.6061C20.7359 29.5893 20.6446 29.5574 20.5533 29.5591C20.4023 29.5641 20.3935 29.4785 20.3882 29.3728C20.3812 29.2553 20.4286 29.1815 20.5533 29.1798C21.0116 29.1731 21.4699 29.1714 21.9282 29.1664C22.0178 29.1664 22.0301 29.2217 22.016 29.2738C21.9897 29.3728 22.0406 29.4601 22.0459 29.5541C22.0037 29.5692 21.9809 29.5994 21.9668 29.638Z" fill="#FCFCFB"/>
<path d="M22.8167 29.111C23.0187 29.0707 23.275 29.1529 23.5349 29.1378C23.5964 29.1345 23.6982 29.1043 23.6736 29.2268C23.6543 29.3241 23.7509 29.4869 23.5753 29.5003C23.1662 29.5306 22.7553 29.5977 22.3479 29.5457C22.2074 29.5272 22.2531 29.3443 22.2302 29.2318C22.2109 29.1345 22.2899 29.116 22.3654 29.1126C22.4954 29.1093 22.6271 29.1126 22.8167 29.1126L22.8167 29.111Z" fill="#FBFAFA"/>
<path d="M21.3505 30.8111C21.7298 30.7574 22.1091 30.7121 22.4954 30.7339C22.4954 30.7709 22.4954 30.8061 22.4954 30.843C22.1003 30.8716 21.7087 30.9572 21.3083 30.9253C21.3083 30.8816 21.3013 30.8363 21.3505 30.8095L21.3505 30.8111Z" fill="#343435"/>
<path d="M20.8272 29.6061C21.1082 29.5675 21.3839 29.6178 21.6613 29.6464C21.6718 29.7957 21.4559 29.7169 21.4418 29.8427C21.3101 29.7555 21.1609 29.7555 21.0098 29.7672C20.9062 29.7588 20.85 29.7001 20.8255 29.6061L20.8272 29.6061Z" fill="#292828"/>
<path d="M12.8709 21.1959C12.8674 21.2479 12.8639 21.3016 12.8604 21.3536C12.7463 21.3486 12.6356 21.4342 12.5215 21.3654C12.4793 21.3402 12.4179 21.3217 12.4267 21.2647C12.4372 21.1942 12.5022 21.221 12.5496 21.2194C12.6216 21.216 12.6936 21.211 12.7656 21.2076C12.8007 21.2043 12.8341 21.2009 12.8692 21.1976L12.8709 21.1959Z" fill="#989796"/>
<path d="M15.1309 20.7259C15.1414 20.8451 15.0905 20.9357 14.9605 20.9357C14.8236 20.9357 14.8253 20.825 14.8236 20.7293C14.9254 20.6471 15.029 20.7326 15.1309 20.7259Z" fill="#0C0C0D"/>
<path d="M12.9078 20.9424C12.9008 20.9861 12.8938 21.0297 12.8867 21.0734C12.8007 21.0532 12.7164 21.075 12.6339 21.0901C12.5952 21.0851 12.5566 21.0784 12.5197 21.0734C12.4864 21.07 12.453 21.0666 12.4196 21.0633C12.4407 20.9072 12.5865 20.971 12.6725 20.9408C12.741 20.9156 12.8288 20.9408 12.9078 20.9408V20.9424Z" fill="#B9B8B7"/>
<path d="M16.0018 21.0599C15.9562 21.0096 15.9632 20.9508 15.972 20.8904C16.0721 21.0113 16.2073 20.8921 16.3196 20.9357C16.3355 20.9492 16.3513 20.9626 16.3653 20.976C16.3653 21.0045 16.3653 21.0314 16.3653 21.0599C16.3477 21.0666 16.3284 21.0734 16.3109 21.0801C16.2073 21.0734 16.1054 21.0666 16.0018 21.0599Z" fill="#B9B8B7"/>
<path d="M15.9755 21.362C15.9685 21.3117 15.9755 21.2647 16.0141 21.2278C16.116 21.2412 16.2143 21.2311 16.3091 21.1959C16.3425 21.2059 16.3741 21.2177 16.4074 21.2278C16.3126 21.4174 16.1212 21.3217 15.9755 21.362Z" fill="#B9B8B7"/>
<path d="M12.6339 21.0901C12.7182 21.075 12.8007 21.0549 12.8867 21.0734C12.8815 21.1136 12.8762 21.1539 12.8692 21.1959C12.8341 21.1992 12.8007 21.2026 12.7656 21.2059C12.7779 21.1086 12.6866 21.1203 12.6321 21.0901L12.6339 21.0901Z" fill="#5E5E5E"/>
<path d="M17.7947 9.68575C17.756 9.66561 17.7876 9.59344 17.7209 9.59512C17.7209 9.51121 17.7613 9.43904 17.7982 9.36519C17.7947 9.4726 17.8315 9.57834 17.7947 9.68575Z" fill="#7E7F7D"/>
<path d="M16.4074 21.2278C16.3741 21.2177 16.3425 21.2059 16.3091 21.1959C16.3091 21.1573 16.3091 21.1187 16.3091 21.0801C16.3267 21.0734 16.3442 21.0666 16.3635 21.0599C16.4268 21.1036 16.4057 21.1673 16.4057 21.2261L16.4074 21.2278Z" fill="#5E5E5E"/>
<path d="M21.9668 29.638C21.9809 29.5994 22.0055 29.5692 22.0459 29.5541C22.0985 29.5826 22.0915 29.6195 22.0529 29.6531C22.0213 29.6799 21.9879 29.6799 21.9651 29.6396L21.9668 29.638Z" fill="#292828"/>
<path d="M22.6236 30.7356C22.6815 30.7188 22.7395 30.702 22.7974 30.6853C22.8097 30.7809 22.7816 30.7893 22.6236 30.7356Z" fill="#343435"/>
<path d="M12.4196 21.065C12.453 21.0683 12.4864 21.0717 12.5197 21.075C12.5057 21.1019 12.5197 21.1556 12.4723 21.1472C12.4513 21.1438 12.4372 21.0935 12.4196 21.065Z" fill="#5E5E5E"/>
<path d="M16.3653 20.976C16.3495 20.9626 16.3337 20.9492 16.3196 20.9357C16.3407 20.9106 16.3653 20.8971 16.3881 20.929C16.3934 20.9357 16.3741 20.9609 16.3653 20.9777L16.3653 20.976Z" fill="#5E5E5E"/>
<path d="M23.8053 27.6239C23.8668 27.6391 23.9265 27.6357 23.9862 27.6156C23.923 27.5719 23.8633 27.5887 23.8053 27.6239Z" fill="#5E5E5E"/>
<path d="M24.16 27.6189C24.1284 27.6189 24.0968 27.6189 24.0652 27.6189C24.0968 27.5853 24.1284 27.587 24.16 27.6189Z" fill="#5E5E5E"/>
<path d="M24.7167 28.1124C24.7378 28.1124 24.7571 28.1123 24.7781 28.1107C24.7588 28.1392 24.7378 28.1392 24.7167 28.1124Z" fill="#7E7F7D"/>
<path d="M24.2917 27.6156C24.2742 27.6156 24.2566 27.6156 24.2391 27.6172C24.2549 27.587 24.2724 27.5853 24.2917 27.6156Z" fill="#5E5E5E"/>
<path d="M18.4251 21.3956C18.4286 20.9257 18.4022 20.4608 18.1652 20.0311C18.116 19.9405 18.0194 19.8717 18.0124 19.7592C18.1283 19.7592 18.1037 19.7089 18.0598 19.6434C17.9825 19.5226 18.0932 19.4403 18.1669 19.4571C18.4198 19.5142 18.6621 19.3916 18.9167 19.4487C19.1573 19.5024 19.2328 19.6518 19.2486 19.8482C19.2574 19.9656 19.2714 20.0814 19.296 20.1956C19.3048 20.2359 19.296 20.2845 19.3504 20.2963C19.4172 20.3097 19.4312 20.2526 19.4576 20.2124C19.5015 20.1452 19.512 20.0462 19.6314 20.0563C19.6332 20.2929 19.6349 20.5312 19.6367 20.7679C19.5577 20.7662 19.4804 20.783 19.4786 20.872C19.4769 21.1304 19.2785 21.1388 19.1134 21.0935C18.8324 21.018 18.6849 21.1657 18.5374 21.3385C18.5076 21.3738 18.4725 21.3922 18.4268 21.3939L18.4251 21.3956Z" fill="#060708"/>
<path d="M19.8193 27.6038C19.8193 27.6525 19.8193 27.6995 19.8193 27.7481C19.5577 27.7633 19.2943 27.78 19.0326 27.7951C19.0309 27.7817 19.0291 27.7683 19.0256 27.7549C19.008 27.6877 18.9027 27.6391 18.9694 27.5568C19.0432 27.4628 19.1239 27.5635 19.2012 27.5602C19.3961 27.7045 19.6103 27.6105 19.8175 27.6021L19.8193 27.6038Z" fill="#060708"/>
<path d="M19.3838 27.0835C19.3241 27.0919 19.2626 27.0902 19.2117 27.1288C19.1573 27.0818 19.1046 27.0332 19.1538 26.9593C19.1784 26.9224 19.224 26.9174 19.2679 26.9224C19.3698 26.9341 19.3856 27.0046 19.3838 27.0835Z" fill="#060708"/>
<path d="M19.3856 7.54418C19.3715 7.54586 19.354 7.54418 19.3434 7.55089C19.0467 7.71369 18.9536 7.67845 18.8482 7.35453C18.8219 7.27564 18.7973 7.19676 18.7798 7.1162C18.764 7.039 18.7903 6.96683 18.8816 6.96515C19.0853 6.95844 19.1994 6.85941 19.2504 6.67815C19.2662 6.62109 19.3118 6.58584 19.3785 6.58249C19.3944 6.90305 19.4102 7.22362 19.3856 7.54586V7.54418Z" fill="#060708"/>
<path d="M4.84791 23.1545C4.5652 23.0118 4.38082 22.7953 4.26844 22.5067C4.22103 22.3858 4.23157 22.2985 4.30532 22.2029C4.56344 21.8605 4.94273 21.7296 5.35012 21.639C5.60649 21.5819 5.87164 21.5634 6.11923 21.4711C6.42828 21.4845 6.4195 21.4795 6.28605 21.7632C6.16489 22.0216 5.99631 22.2583 5.93661 22.5419C5.92081 22.6141 5.81545 22.6342 5.80491 22.7165C5.76101 22.7635 5.71536 22.8088 5.67146 22.8558C5.42211 23.0169 5.18506 23.2082 4.84967 23.1545L4.84791 23.1545Z" fill="#080909"/>
<path d="M5.6697 22.8558C5.7136 22.8088 5.75926 22.7634 5.80316 22.7165C5.89271 22.8809 5.76979 22.8591 5.6697 22.8558Z" fill="#FBFAFA"/>
<path d="M17.5734 19.5612C17.4997 19.5578 17.4242 19.5612 17.3697 19.4991C17.296 19.2792 17.5119 19.2272 17.6191 19.1147C17.6647 19.066 17.7069 19.1214 17.7367 19.1617C17.7789 19.2221 17.8333 19.2624 17.9158 19.2607C17.9685 19.2607 18.0264 19.2675 18.0159 19.3363C18.0071 19.4 17.979 19.4672 17.9 19.4638C17.7771 19.4605 17.6753 19.5091 17.5734 19.5595L17.5734 19.5612Z" fill="#060708"/>
<path d="M18.5181 6.63284C18.5813 6.62948 18.5936 6.66808 18.5936 6.71172C18.5936 6.75032 18.6077 6.80403 18.548 6.80906C18.497 6.8141 18.476 6.77214 18.4707 6.7285C18.4654 6.68654 18.4654 6.64458 18.5199 6.63116L18.5181 6.63284Z" fill="#060708"/>
<path d="M17.1625 19.6333C17.1994 19.6904 17.2345 19.7475 17.2714 19.8045C17.1327 19.8062 17.0413 19.781 17.1625 19.6333Z" fill="#060708"/>
<path d="M17.1081 19.5561C17.1327 19.5595 17.1485 19.5696 17.1432 19.5964C17.1309 19.583 17.1204 19.5696 17.1081 19.5561Z" fill="#060708"/>
<path d="M22.9695 28.3373C22.9923 28.2953 23.0274 28.2986 23.0643 28.3154C23.038 28.3456 23.0029 28.3423 22.9695 28.3373Z" fill="#B9B8B7"/>
<path d="M16.3109 21.0801C16.3109 21.1187 16.3109 21.1573 16.3109 21.1959C16.216 21.2311 16.116 21.2412 16.0159 21.2278C16.0124 21.1724 16.0071 21.1153 16.0036 21.0599C16.1072 21.0666 16.209 21.0734 16.3126 21.0801L16.3109 21.0801Z" fill="#292828"/>
<path d="M14.5461 21.1203C14.5286 21.1841 14.4759 21.2059 14.4179 21.2177C14.3881 21.2227 14.3582 21.2059 14.3617 21.1707C14.3653 21.1069 14.4056 21.07 14.4724 21.0633C14.5145 21.0599 14.5409 21.0784 14.5479 21.1203H14.5461Z" fill="#656565"/>
</svg>
